<svg aria-hidden="true" style="width:0;height:0;position:absolute;overflow:hidden" xmlns="http://www.w3.org/2000/svg"><defs><symbol id="icon-button-down" viewBox="0 0 32 32"><path d="M15.053 17.867a1.334 1.334 0 0 0 1.894 0l6.107-6.12a1.334 1.334 0 1 1 1.894 1.88l-6.12 6.12a4.001 4.001 0 0 1-5.654 0l-6.12-6.12a1.337 1.337 0 0 1 .434-2.172 1.331 1.331 0 0 1 1.46.292l6.107 6.12z"/></symbol><symbol id="icon-Group-2" viewBox="0 0 20 32"><path d="M9.005 30.888a8.64 8.64 0 0 1-3.414-5.351H0V2.42c2.991 1.443 5.153 4.599 5.388 7.876l.846 6.493-.407-.045c-.893 0-1.676.812-1.676 1.608 0 .752.595 1.383 1.378 1.548l1.018.226c1.676-3.051 2.631-6.042 2.631-8.973 0-2.645-.36-5.291-.423-7.996 0-1.202.486-2.3 1.253-3.156.783.857 1.253 1.954 1.253 3.156 0 2.705-.423 5.351-.423 7.996 0 2.931.955 5.922 2.631 8.973l1.018-.226c.783-.165 1.378-.812 1.378-1.548 0-.812-.783-1.608-1.676-1.608l-.423.06.846-6.493c.423-3.277 2.396-6.448 5.388-7.876v23.117h-5.576c-.423 2.179-1.613 4.148-3.414 5.351-.423.286-.783.631-1.018 1.097-.219-.466-.579-.812-.987-1.112zM2.647 17.556c.235-.857.893-1.608 1.738-2.074l-.658-5.351a8.288 8.288 0 0 0-2.036-4.374v11.784h.955v.015zm2.819 6.373c0-.812.125-1.548.298-2.3l-.783-.18c-1.143-.346-2.036-1.203-2.334-2.3h-.955v4.78h3.774zm3.712 0c0-.977-.783-1.834-1.801-1.954-.172.631-.298 1.263-.298 1.954h2.099zm0 1.623H7.314c.298 1.263.955 2.42 1.864 3.397v-3.397zm2.631-5.005c-.72-1.262-1.378-2.585-1.801-3.968-.423 1.383-1.081 2.706-1.801 3.968.72.165 1.316.631 1.801 1.157.486-.526 1.081-.992 1.801-1.157zm1.143 3.382c0-.691-.125-1.323-.297-1.954-1.018.12-1.801.977-1.801 1.954h2.099zm-.235 1.623h-1.864v3.397c.908-.992 1.566-2.134 1.864-3.397zm5.623-1.623v-4.78h-.955c-.298 1.097-1.206 1.954-2.334 2.3l-.783.18c.172.752.298 1.488.298 2.3h3.774zm0-6.373V5.757c-1.081 1.202-1.864 2.706-2.036 4.374l-.658 5.351c.846.466 1.504 1.203 1.739 2.074h.955z"/></symbol><symbol id="icon-1" viewBox="0 0 157 32"><path d="M14.421.009h.735c1.132.109 2.125.728 2.935 1.49 3.002.516 5.867 1.927 7.99 4.132.372-.456.74-.931 1.199-1.303.535-.169 1.122-.02 1.625.194.312.152.685.35.757.723-.018.294-.189.547-.343.788-.446.646-.961 1.243-1.466 1.842 1.655 2.576 2.443 5.682 2.264 8.735-.166 3.175-1.334 6.279-3.267 8.8-.107.131-.231.247-.351.367-.354-.1-.423-.471-.532-.774 1.693-2.155 2.594-4.884 2.633-7.617.078-2.738-.742-5.466-2.186-7.78-1.199 1.474-2.347 3.014-3.175 4.733-.955 1.94-1.1 4.176-.889 6.298.27 2.566 1.082 5.046 2.131 7.393.116.273.252.544.296.84.039.333-.158.657-.45.81-2.325 1.362-4.976 2.136-7.66 2.311h-2.186c-3.229-.271-6.464-1.307-9.029-3.334-2.508-1.923-4.279-4.746-5.02-7.812-.235-.934-.352-1.892-.431-2.852V16.55a15.651 15.651 0 0 1 2.421-7.675c-.301-.367-.664-.713-.807-1.178-.022-.364.273-.65.567-.815.616-.327 1.326-.442 2.018-.407 1.891-2.009 4.274-3.56 6.899-4.42.245-.052.36-.29.509-.464.685-.865 1.707-1.473 2.813-1.585zM4.968 7.116c1.341 1.305 2.789 2.514 4.398 3.475 1.625.958 3.446 1.663 5.347 1.753 1.563.099 3.116-.329 4.504-1.027 1.996-1.01 3.722-2.474 5.284-4.057a14.652 14.652 0 0 0-5.047-3.304c.357 1.289.38 2.693-.061 3.966-.425 1.287-1.386 2.419-2.661 2.921-1.005.419-2.167.306-3.148-.126-1.27-.556-2.186-1.723-2.697-2.984-.491-1.3-.633-2.755-.306-4.112-2.131.656-4.103 1.849-5.613 3.497zm-2.504 13.85c1.253 3.237 3.778 5.914 6.847 7.504-.232-2.429-.194-4.886.183-7.3.137-.966.348-1.921.451-2.893.059-.582.039-1.221-.319-1.712-.617-.885-1.347-1.684-2.083-2.471-1.43-1.53-2.956-2.964-4.441-4.441-1.922 3.421-2.059 7.685-.639 11.312zM38.437 10.802c1.703-.413 3.505-.071 5.081.636-.003.685-.001 1.372-.002 2.057-1.119-.467-2.276-1.004-3.517-.948-.46.028-1 .144-1.259.566-.203.352.048.762.355.953.617.405 1.343.585 2.019.863.88.343 1.794.772 2.364 1.561.601.848.657 2.017.252 2.96-.415.941-1.365 1.53-2.338 1.756-1.758.401-3.647.08-5.202-.827-.003-.767 0-1.533-.001-2.3.958.632 1.986 1.269 3.159 1.362.569.038 1.228.042 1.68-.36.347-.315.294-.913-.068-1.195-.504-.416-1.151-.586-1.75-.816-.944-.344-1.94-.723-2.609-1.511-.676-.8-.826-1.98-.47-2.952.372-.967 1.331-1.573 2.304-1.805zM102.203 10.786c1.822-.334 3.799-.179 5.44.729.01.786.002 1.572.004 2.358-1.287-.702-2.758-1.195-4.24-1.011-1.092.121-2.198.664-2.764 1.638-.664 1.11-.488 2.648.429 3.566.859.879 2.156 1.191 3.353 1.09 1.198-.082 2.287-.633 3.36-1.124.003.766-.002 1.531.003 2.297-1.854 1.039-4.096 1.305-6.155.801-1.337-.333-2.585-1.132-3.322-2.315-.972-1.521-1.059-3.566-.193-5.154.808-1.538 2.4-2.554 4.083-2.875zM118.845 10.661c.764-.214 1.586.478 1.529 1.265-.021.719-.752 1.313-1.461 1.165-.731-.116-1.239-.968-.941-1.659.144-.379.479-.672.873-.77zM78.535 10.764c.748-.002 1.495-.002 2.243 0-.002 1.464.002 2.929-.003 4.393.364-.436.807-.829 1.356-1.011.932-.316 2.063-.14 2.771.571.525.525.727 1.288.722 2.013v4.494c-.748.001-1.495.002-2.242-.001-.002-1.348.006-2.698-.004-4.046-.007-.497-.103-1.097-.574-1.368-.784-.4-1.929.094-2.008 1.02-.045 1.463-.006 2.931-.019 4.396h-2.241c-.002-3.487-.001-6.973-.001-10.459zM109.443 10.765c.748-.004 1.495-.002 2.243-.001 0 1.464.004 2.929-.002 4.393.458-.525 1.044-.985 1.747-1.109 1.007-.202 2.17.176 2.728 1.072.372.571.438 1.272.419 1.937-.004 1.389 0 2.777-.002 4.167h-2.241c-.004-1.351.002-2.702-.003-4.053-.003-.508-.13-1.117-.62-1.377-.801-.378-1.933.146-2.014 1.071-.027 1.452-.002 2.906-.012 4.359h-2.241c-.002-3.486.001-6.973-.002-10.458zM121.925 10.764c.747-.002 1.494-.002 2.242 0 .003 2.469-.002 4.938.003 7.407.013.411.036.875.33 1.193.217.248.555.315.861.39-.235.533-.485 1.06-.694 1.602-.772.022-1.62-.178-2.143-.786-.486-.563-.594-1.339-.6-2.058v-7.749zM131.231 10.764c.743-.006 1.488.006 2.232-.008.026 3.487-.002 6.975.013 10.462-.749.013-1.498.003-2.245.006a24.481 24.481 0 0 1 0-.542c-1.187 1.042-3.148.869-4.222-.253-1.503-1.539-1.405-4.408.305-5.757 1.11-.868 2.701-.845 3.918-.213-.003-1.231-.002-2.464-.001-3.695zm-1.747 4.834c-.593.138-1.015.665-1.163 1.236-.176.702-.172 1.481.146 2.144.231.485.71.851 1.251.898.554.076 1.084-.199 1.494-.548.042-1.14.008-2.284.017-3.426-.533-.27-1.15-.486-1.745-.304zM74.457 11.955l.287.006c.003.724-.004 1.45.004 2.174.853-.001 1.706-.002 2.56 0l-.001 1.544c-.854.001-1.707-.001-2.561.001 0 .976-.006 1.952.001 2.93-.016.456.238.949.702 1.076.642.176 1.289-.099 1.86-.373-.002.544-.002 1.088 0 1.633-1.052.467-2.298.592-3.39.192-.857-.31-1.368-1.2-1.402-2.084-.037-1.124-.002-2.25-.018-3.374-.335.001-.67 0-1.004-.001.02-.184-.056-.413.104-.552.956-1.054 1.898-2.121 2.857-3.171zM46.048 14.964c1.066-1.136 2.915-1.238 4.237-.508l.002-.321c.747-.002 1.493-.002 2.241 0 .01 1.655-.017 3.31.013 4.964-.004.557.338 1.098.896 1.235-.527.338-1.049.686-1.565 1.042-.546-.108-1.063-.387-1.401-.837-1.208 1.236-3.444 1.064-4.532-.244-1.263-1.482-1.23-3.907.108-5.331zm2.436.657c-.595.207-.934.808-1.074 1.39-.179.742-.156 1.61.345 2.225.624.731 1.86.73 2.536.07-.012-1.131-.004-2.262-.003-3.394-.537-.308-1.198-.511-1.804-.291zM62.013 15.104c1.342-1.392 3.797-1.495 5.24-.202.879.779 1.238 1.998 1.185 3.145-1.697.002-3.393-.001-5.09.001.037.559.246 1.136.703 1.487.627.495 1.485.559 2.25.445.746-.113 1.391-.532 1.997-.956-.009.459.014.918-.008 1.376-.674.565-1.562.849-2.43.942-1.303.12-2.74-.079-3.748-.983-1.463-1.323-1.445-3.856-.098-5.254zm1.865.754c-.24.292-.329.666-.388 1.031 1.014.002 2.028.007 3.041-.003-.061-.352-.145-.718-.37-1.005-.526-.714-1.745-.725-2.283-.022zM87.735 15.198c1.376-1.583 4.153-1.617 5.547-.041.709.777.971 1.861.939 2.891-1.697.002-3.395-.001-5.093.002.056.578.279 1.168.748 1.537.607.487 1.44.553 2.184.438.768-.126 1.434-.561 2.06-.997 0 .481.001.964-.001 1.446-1.208.851-2.768 1.043-4.2.811-1.083-.176-2.136-.789-2.656-1.782-.702-1.352-.54-3.147.47-4.305zm1.902.571c-.291.302-.399.719-.464 1.12 1.029.004 2.058.001 3.089.001-.065-.353-.148-.719-.383-1.002-.518-.678-1.657-.742-2.242-.119zM137.375 15.682c.369-.789 1.026-1.518 1.926-1.655.682-.162 1.306.256 1.824.647-.216.647-.415 1.299-.623 1.949-.477-.246-.968-.579-1.531-.518-.523.03-1.043.296-1.306.761-.32.527-.302 1.166-.292 1.761.004.86-.01 1.723.008 2.583-.75.028-1.5.007-2.25.012a8373.29 8373.29 0 0 1 0-7.088c.747-.001 1.494-.002 2.242 0 0 .516-.003 1.032.002 1.548zM142.297 15.153c1.38-1.499 4.035-1.566 5.451-.085.768.779 1.058 1.91 1.022 2.979-1.714.002-3.427-.001-5.141.002.056.565.27 1.142.722 1.51.617.505 1.472.583 2.235.465.756-.133 1.409-.563 2.028-.991l-.001 1.446c-1.117.785-2.535 1-3.87.852-1.146-.116-2.3-.678-2.901-1.693-.806-1.385-.644-3.302.454-4.486zm1.65.878c-.163.259-.215.564-.272.858 1.031-.001 2.06.011 3.091-.007-.068-.379-.167-.772-.427-1.07-.61-.713-1.93-.611-2.393.218zM153.86 14.136c.933-.227 2.035-.041 2.706.689.363.379.501.898.671 1.381v5.075l-2.27-.001c-.003-1.371.001-2.742-.001-4.114-.007-.5-.111-1.097-.586-1.365-.793-.393-1.913.134-1.99 1.052-.036 1.474-.002 2.952-.014 4.427h-2.242v-7.144c.747-.002 1.494-.002 2.242 0 0 .352.001.703-.002 1.055.384-.48.877-.905 1.488-1.054zM53.365 14.135c.739.004 1.478-.017 2.215.012.494 1.284.98 2.573 1.509 3.845.507-1.285 1.003-2.573 1.509-3.858.781.001 1.562-.002 2.343.002a4505.964 4505.964 0 0 1-3.188 7.088c-.449-.001-.898.001-1.346-.001-1.012-2.364-2.032-4.724-3.042-7.088zM118.039 14.135c.729-.002 1.458-.001 2.186 0l.001 7.088c-.732-.003-1.463.012-2.193-.01.013-2.359.001-4.718.006-7.078z"/></symbol><symbol id="icon-2" viewBox="0 0 65 32"><path d="M17.06 1.549c-.082.082-.143.408-.143.734 0 .53.061.571.836.571.795 0 .815-.02.754-.673-.061-.571-.143-.652-.673-.713-.346-.041-.693 0-.775.082zM31.389 2.752c0 .775-.061.917-.408.917-.326 0-.408.143-.408.713s.082.713.408.713c.367 0 .408.163.448 1.875l.061 1.896.673.061.652.061V7.052c0-1.855.02-1.936.469-1.997.346-.041.469-.224.51-.713.061-.53-.02-.652-.408-.713-.387-.041-.469-.204-.53-.938-.061-.836-.082-.856-.775-.856s-.693 0-.693.917zM3.506 3.791c-.245.163-.448.204-.448.102 0-.122-.367-.224-.815-.224h-.815v7.338h1.631V9.784c0-1.121.204-1.529.51-1.019.061.102.53.204 1.039.204.734 0 1.04-.122 1.651-.673.632-.591.754-.836.815-1.794.082-.917.02-1.223-.387-1.814-.795-1.182-2.201-1.59-3.18-.897zm1.691 1.61c.571.55.611.754.285 1.386-.306.571-.571.754-1.182.754-1.121 0-1.651-1.427-.836-2.242.55-.55 1.141-.51 1.732.102zM9.804 3.852c-.326.326-.428.367-.428.122 0-.224-.224-.306-.815-.306h-.836l.061 2.589.061 2.609h1.427l.102-1.61c.102-1.631.163-1.753 1.08-2.038.285-.102.367-.285.306-.876-.082-.897-.387-1.06-.958-.489zM12.29 3.771c-1.916.815-1.957 3.913-.082 4.892 1.875.958 4.097-.347 4.097-2.446 0-2.059-2.059-3.302-4.015-2.446zm2.304 1.854c.387.571.224 1.203-.428 1.631-.958.632-2.222-.428-1.753-1.468.428-.938 1.61-1.04 2.181-.163zM20.443 3.873c-1.753 1.06-1.671 3.852.122 4.79.713.367 2.099.408 2.731.082.469-.245 1.141-.978 1.162-1.284 0-.163-.795-.082-2.201.204-.51.102-.775.041-1.101-.245-.408-.387-.387-.387 1.488-.489 1.896-.102 1.916-.102 1.977-.632.102-.836-.469-1.957-1.223-2.425-.856-.51-2.12-.53-2.955 0zm2.344 1.263c.448.448.265.571-.876.571-.611 0-1.121-.082-1.121-.163 0-.346.51-.652 1.121-.652.346 0 .734.102.876.245zM26.375 3.852c-.978.591-1.304 1.203-1.304 2.425 0 1.019.061 1.182.795 1.896.693.693.897.795 1.732.795.53 0 1.223-.143 1.529-.285.571-.306 1.243-1.141 1.243-1.549 0-.306-1.468-.224-1.916.102-.55.408-.815.387-1.468-.163-.448-.387-.53-.591-.408-1.019.061-.306.367-.693.652-.897.51-.326.571-.326 1.141 0 .55.326 1.997.489 1.997.245 0-.082-.143-.387-.306-.693-.591-1.141-2.487-1.59-3.689-.856zM16.917 6.522c0 2.629-.02 2.853-.408 3.057-.428.224-.571 1.304-.204 1.529.122.082.53.02.917-.102 1.141-.387 1.325-.958 1.325-4.382V3.669h-1.631v2.853zM24.051 12.046c-2.69.448-5.462 2.548-6.685 5.075-2.772 5.707.775 12.352 7.073 13.289 4.912.734 9.62-2.813 10.456-7.868.815-4.871-2.813-9.743-7.786-10.517-1.488-.224-1.508-.224-3.057.02zm.408 3.485c1.284.652 1.834 1.794 1.834 3.75 0 1.162-.061 1.488-.326 1.59-.53.204-.897-.265-.897-1.101 0-.917-.448-1.406-.917-1.019-.224.204-.306.713-.306 2.242 0 1.366-.082 2.059-.265 2.201-.51.428-.734-.061-.815-1.794-.061-1.712-.061-1.712-.102.448-.02 1.508-.122 2.201-.285 2.262-.652.224-.775-.102-.815-2.283l-.041-2.16-.102 1.936c-.102 1.753-.163 1.936-.53 1.936s-.408-.163-.51-1.936l-.122-1.936-.082 1.427c-.082 1.264-.143 1.427-.51 1.427s-.408-.163-.469-1.936c-.082-2.69.061-3.547.815-4.382 1.019-1.182 2.894-1.447 4.443-.673zm5.299 5.055.122 2.14.082-1.936c.102-1.773.143-1.936.51-1.936s.408.163.51 1.936l.122 1.936.082-1.427c.082-1.264.143-1.427.51-1.427.387 0 .408.163.469 2.548.061 3.057-.183 3.71-1.59 4.443-1.814.917-4.158.326-4.973-1.284-.326-.611-.428-1.203-.428-2.344 0-1.488.02-1.529.51-1.529.448 0 .51.102.571.856.061.897.448 1.406.958 1.223.224-.102.306-.611.346-2.324.061-2.099.082-2.201.51-2.262s.448 0 .53 1.732l.061 1.794.041-2.059c.041-2.12.122-2.385.652-2.283.245.061.326.489.408 2.201zM1.671 12.474c-.183.183-.245 2.262-.245 8.703 0 4.668.082 8.601.163 8.744.122.183.673.245 1.997.204l1.814-.061.204-7.134H10.7l.204 7.134 1.814.061c1.325.041 1.875-.02 1.997-.204.082-.143.163-4.076.163-8.744 0-7.032-.041-8.54-.285-8.724-.183-.163-.917-.224-1.997-.183l-1.692.061-.061 3.302-.041 3.322H5.503l-.041-3.322-.061-3.302-1.732-.061c-1.182-.041-1.814.02-1.997.204zM37.136 12.392c-.183.122-.245 2.059-.204 8.927l.061 8.744h3.873l.061-2.792.061-2.813h1.997c2.466 0 3.547-.346 4.892-1.549 1.366-1.223 1.936-2.589 1.957-4.566 0-1.182-.102-1.732-.469-2.466-.632-1.304-1.753-2.385-3.078-3.017-1.08-.51-1.325-.53-5.014-.591-2.12-.02-3.995.02-4.138.122zm7.909 4.26c1.243 1.121.958 3.241-.51 3.852-.387.163-1.345.285-2.14.285h-1.427v-4.688H42.7c1.59 0 1.773.041 2.344.55zM51.18 12.494c-.163.224-.224 2.67-.183 8.927l.061 8.642h10.599v-3.669l-3.302-.061-3.322-.041v-3.241l5.809-.122V19.26l-5.809-.122v-3.017l6.42-.122V12.33l-5.014-.061c-4.076-.041-5.055 0-5.259.224zM62.573 13.248c0 .265.143.408.408.408s.408-.143.408-.408-.143-.408-.408-.408-.408.143-.408.408zM61.982 13.187c-.02.347.713 1.08 1.06 1.06.122 0 .041-.102-.183-.224-.245-.102-.55-.408-.652-.652-.122-.224-.224-.306-.224-.183zM63.633 13.615c-.224.51-.224.51.082.204.183-.183.306-.428.265-.55s-.204.041-.346.347z"/></symbol><symbol id="icon-3" viewBox="0 0 123 32"><path d="M20.1 3.19a4.9 4.9 0 0 0-.061.818c0 .491.031.593.204.644.112.031.337.266.511.511l.307.45v1.666c0 .92-.041 1.718-.082 1.769-.041.061-.368.174-.726.245a7.17 7.17 0 0 0-1.319.429c-.368.164-.705.296-.757.296-.112 0-.9-.644-1.738-1.421l-.593-.552v-.757c0-.409-.031-.746-.072-.746-.051 0-1.902 0-4.12-.01H7.616l-.031.828c-.02.685 0 .818.133.818.266 0 .961.399 1.114.644.174.266.072.644-2.464 9.017-.818 2.699-1.574 5.224-1.677 5.623-.47 1.707-.818 2.546-1.237 2.944l-.399.399.031.726.031.736 4.171.031 4.161.02v-1.585l-.573-.245c-.889-.389-.91-.501-.44-2.208 2.321-8.271 2.914-10.275 3.016-10.275.031 0 .194.092.348.204.256.184.296.296.327.746l.031.532.746.02c.808.02.736.072.879-.767l.061-.327h-.818c-.48 0-.818-.041-.818-.102s.337-.102.818-.102h.818l.235-.542.235-.532-.746-.031c-1.012-.041-.951-.225.072-.225h.808l.419-.542c.225-.307.409-.583.409-.613 0-.041-.307-.072-.675-.072-.419 0-.644-.041-.603-.102.031-.061.409-.102.838-.102h.777l1.084-1.022h-.358c-.194 0-.348-.051-.348-.102 0-.061.276-.102.624-.102.521 0 .695-.051 1.084-.307.879-.593 1.176-.675 3.609-.9l.767-.072-.675-.48c-.849-.603-.93-.716-.951-1.206 0-.296.061-.47.225-.634.307-.307.47-.143.317.307-.184.521-.051.787.613 1.237.327.225.736.583.91.797.256.307.348.358.419.245.092-.143.767-.133 2.208.041.317.031.337.031.102-.031l-.307-.072-.031-1.758c-.031-2.106.051-2.403.695-2.658l.409-.164V2.962h-7.852l-.061.225zm4.171.347c.184.174.215.511.061.603-.061.041-.102.767-.102 1.83 0 .981-.031 1.912-.061 2.086-.061.276-.092.307-.256.215-.184-.092-.194-.245-.194-2.004 0-1.258-.041-2.024-.123-2.259-.112-.307-.112-.358.072-.491.245-.184.409-.184.603.02zm-1.033.225c.368.378.286.583-.235.583-.358 0-.389-.01-.245-.164.327-.368.123-.399-.47-.082-.337.174-.613.358-.613.399 0 .123.419.204 1.104.204.562 0 .644.02.613.174-.02.112-.133.194-.286.204-.143 0-.358.041-.48.082-.174.061-.235.031-.235-.092 0-.184-.153-.225-.256-.061s-.389.123-.327-.041c.041-.112-.031-.164-.256-.184-.399-.041-.491-.256-.164-.378.133-.051.511-.286.849-.511.337-.235.644-.419.675-.419s.174.133.327.286zm2.791.133c.225.174.521.378.685.46.286.153.368.348.143.348-.072 0-.235.123-.368.266-.143.164-.286.235-.389.204a.287.287 0 0 0-.286.041c-.082.072-.235.051-.501-.051-.419-.174-.511-.419-.123-.317.133.031.378-.01.532-.092.164-.082.378-.153.48-.153.245 0 .215-.123-.112-.44-.307-.296-.48-.358-.399-.133.031.072-.041.215-.153.307-.184.164-.225.164-.44.02-.337-.225-.389-.204-.317.082.041.164.01.266-.092.307-.123.041-.153-.031-.153-.307s.051-.368.235-.44a.98.98 0 0 0 .368-.256c.204-.245.45-.204.889.153zm-.582 2.709c.123.153.215.358.215.47 0 .225-1.084 1.411-1.298 1.411s-.153-.143.215-.501c.48-.46.634-.859.48-1.196-.215-.481.061-.603.389-.184z"/><path d="M23.923 3.885c0 .112.051.204.102.204.061 0 .102-.092.102-.204s-.041-.204-.102-.204c-.051 0-.102.092-.102.204zM88.322 6.318c-.266.245-.327.368-.327.736s.061.491.327.736c.358.317.695.358 1.135.133.603-.317.705-1.094.215-1.595-.409-.399-.91-.409-1.35-.01zM110.773 6.196l-.613.143.031 3.916c.041 4.355.051 4.427.736 4.795.276.153.521.184 1.043.164.378-.02.705-.061.736-.092s-.01-.256-.082-.501c-.092-.307-.194-.47-.327-.491-.44-.082-.45-.194-.45-4.069 0-2.034-.031-3.773-.061-3.865-.072-.194-.194-.194-1.012 0zM32.726 6.543c-.051.031-.112.419-.153.869s-.133.879-.194.961c-.061.072-.634.501-1.268.951s-1.135.859-1.104.91c.041.051-.061.092-.225.092a2.64 2.64 0 0 0-.511.061c-.204.051-.174.102.286.511.501.45.511.45 1.268.45.409 0 .787.041.818.102.061.102-.092.123-.838.143-.184.01-.348.041-.358.082-.02.041.133.296.337.562l.368.501.787-.031c.429-.02.777.01.777.061 0 .123-.368.215-.9.215h-.429l.511 1.022h.716c.409 0 .716.041.716.102s-.276.102-.613.102c-.337 0-.613.031-.613.061 0 .041.082.286.174.562l.184.501h.583c.583 0 .593 0 .593-.296 0-.235.102-.358.552-.654.46-.307.573-.348.675-.225.225.276 3.098 11.543 3.016 11.819-.082.256-.685.705-.941.705-.348 0-.45.235-.419.941l.031.644h8.281l.031-.654c.031-.573 0-.685-.215-.92a2.593 2.593 0 0 1-.378-.511c-.194-.378-2.086-6.942-3.312-11.461-.317-1.155-.726-2.668-.92-3.374-.409-1.452-.521-2.034-.429-2.331.041-.123.276-.307.521-.429l.46-.225v-.91c0-.501-.031-.91-.072-.91-2.208-.041-7.739-.041-7.79 0zM47.458 10.806l.031 4.273 1.789.061V6.542h-1.84l.02 4.263zM58.203 7.075l-.746.204v1.513h-.307c-.297 0-.307.01-.307.511s.01.511.307.511h.307v2.167c0 1.983.02 2.208.204 2.505.368.613 1.247.859 2.29.644l.593-.123-.061-.368a6.607 6.607 0 0 1-.061-.501c0-.092-.133-.112-.46-.061-.368.041-.511.02-.665-.123-.194-.174-.204-.317-.204-2.157V9.824l.521-.031c.521-.031.521-.031.705-.521l.184-.48h-1.411v-.971c0-.532-.031-.971-.072-.961-.051 0-.419.102-.818.215zM85.01 7.136l-.613.174-.031.746-.031.736h-.296c-.296 0-.307.01-.307.501 0 .48.02.511.286.542l.276.031.051 2.249c.061 2.515.072 2.576.777 2.914.46.225 1.288.266 1.912.092.399-.102.419-.164.286-.757-.061-.286-.082-.296-.532-.266-.797.041-.808 0-.808-2.29V9.825l.521-.031c.521-.031.532-.041.705-.491l.184-.46-1.442-.102.02-.9c.031-1.022.072-.992-.961-.705zM79.898 8.7c-.47.082-1.421.44-1.769.665l-.235.153.276.48c.153.266.307.511.337.562.041.041.368-.072.726-.245 1.165-.583 1.942-.389 1.942.48 0 .327-.02.348-.378.358-.859.02-1.789.235-2.259.521-.501.307-.736.859-.736 1.697 0 .767.194 1.186.716 1.564.603.45 1.983.46 2.617.031.194-.133.368-.245.388-.245s.184.133.368.307c.409.378.511.378.828.02.532-.583.532-.583.245-.992-.256-.378-.256-.419-.256-2.29 0-2.137-.082-2.443-.716-2.812-.378-.225-1.493-.358-2.096-.256zm1.196 4.284c-.031.552-.072.705-.286.889-.573.521-1.268.164-1.268-.634 0-.654.46-.981 1.329-.93.245.01.256.031.225.675zM51.323 8.884c-.399.123-.552.225-.511.327.031.082.061 1.442.082 3.026l.031 2.893h1.626v-2.229c0-2.495-.02-2.403.746-2.73.48-.194.542-.194.787.051.194.194.204.337.204 2.556v2.351h1.646l-.031-2.689c-.041-3.098-.061-3.21-.869-3.568-.644-.286-1.411-.204-2.096.215-.593.368-.593.368-.593.123 0-.562-.153-.613-1.022-.327zM62.415 8.874c-.48.225-1.094.879-1.35 1.421-.133.296-.174.675-.174 1.615-.01 1.37.143 1.84.777 2.495.971.992 2.74 1.104 4.079.266l.388-.256-.317-.511c-.286-.46-.337-.501-.481-.368-.491.45-1.595.603-2.147.317-.337-.174-.654-.767-.603-1.135l.031-.266 1.769.01c1.493.02 1.769-.01 1.82-.133.031-.092.01-.562-.061-1.053-.143-1.104-.481-1.789-1.104-2.219-.378-.276-.532-.307-1.329-.337-.705-.031-.971 0-1.298.153zm1.738 1.176c.204.174.286.358.327.716l.061.48h-.992c-1.104 0-1.135-.041-.838-.757.276-.665.951-.869 1.442-.44zM67.548 8.864c-.593.153-.603.164-.542.48.041.174.092 1.554.133 3.057l.061 2.74 1.554-.061.031-2.28.02-2.28.337-.204c.215-.123.47-.194.726-.174l.388.02.194-.603c.102-.337.174-.675.143-.746-.061-.153-.797-.164-1.104-.01-.123.061-.368.256-.542.419l-.317.296-.123-.419c-.133-.45-.123-.45-.961-.235zM71.974 8.884c-.399.123-.552.225-.511.327.031.082.061 1.442.082 3.026l.031 2.893h1.626v-2.229c0-2.495-.02-2.403.746-2.73.481-.194.542-.194.787.051.194.194.204.337.204 2.556v2.351h1.534v-2.72c0-3.077-.02-3.149-.767-3.517-.685-.327-1.513-.235-2.239.256-.204.143-.388.256-.409.256s-.072-.164-.102-.358c-.082-.419-.164-.429-.981-.164zM88.721 8.813l-.593.102v6.216h1.636V8.69l-.225.01c-.133.01-.501.061-.818.112zM92.534 8.854c-.562.215-1.196.838-1.472 1.462-.286.644-.358 2.116-.133 2.893.215.736.654 1.329 1.257 1.687.44.256.583.286 1.411.286.818 0 .971-.031 1.401-.286.491-.286.951-.849 1.217-1.503.092-.235.143-.746.143-1.482 0-.93-.041-1.206-.215-1.585-.266-.573-.808-1.135-1.329-1.38-.542-.256-1.697-.296-2.28-.092zm1.667 1.308c.481.47.603 2.351.225 3.272-.348.828-1.268.889-1.646.102-.225-.48-.307-1.799-.153-2.535.153-.746.45-1.084.971-1.084a.81.81 0 0 1 .603.245zM97.861 8.874c-.511.143-.542.174-.481.419.041.143.092 1.523.123 3.057l.051 2.791 1.564-.061.02-2.249c.02-2.208.02-2.239.256-2.423.44-.337.879-.429 1.155-.245l.256.164.02 2.382.031 2.372 1.585.061v-2.617c0-2.873-.041-3.118-.593-3.517-.624-.44-1.697-.368-2.464.153l-.368.245-.112-.327c-.133-.399-.286-.429-1.043-.204zM104.997 8.925c-.726.266-1.125.48-1.125.613 0 .061.378.787.562 1.073.01.01.337-.123.716-.296 1.227-.583 1.891-.429 1.891.419v.368l-.951.112c-1.36.164-1.932.48-2.27 1.288-.378.9-.041 2.075.705 2.484.767.429 1.973.399 2.638-.072l.286-.215.368.317c.194.174.409.317.481.317.072-.01.296-.215.511-.46l.399-.46-.266-.317c-.143-.174-.266-.44-.276-.583 0-.153-.01-1.063-.02-2.034-.02-1.595-.041-1.779-.235-2.034-.44-.603-.695-.705-1.758-.736-.828-.02-1.104.01-1.656.215zm2.045 4.049c0 .665-.02.726-.296.92-.634.45-1.339.102-1.339-.654 0-.593.47-.93 1.36-.961.276-.01.276-.01.276.695z"/><path d="M27.788 9.375c.072.031.102.123.082.215-.092.286.593.552 1.319.511l.613-.031-.767-.317c-.419-.184-.9-.348-1.073-.368-.164-.031-.245-.031-.174-.01zM22.063 9.723c-.337.256-.368.399-.072.399.225 0 .491-.256.501-.491 0-.174-.112-.153-.429.092zM20.488 9.712c-.123.051-.256.133-.296.194-.031.061-.153.112-.266.112-.102 0-.194.041-.194.102 0 .194.521.102.92-.164.225-.153.409-.286.409-.307 0-.072-.348-.031-.573.061zM21.194 9.815c-.245.102-.44.245-.44.307 0 .204.48.092.818-.204.419-.348.256-.399-.378-.102zM23.923 9.845c0 .184.051.276.153.276.133 0 .143-.041.041-.235-.174-.337-.194-.337-.194-.041zM20.243 10.449c-.235.082-.225.368.01.296.082-.02.266-.061.429-.092.153-.02.297-.082.327-.123.072-.112-.501-.184-.767-.082zM18.433 10.909l-.593.491.429.031c.368.031.501-.02.992-.409.307-.245.562-.47.562-.521.01-.041-.174-.072-.389-.072-.327 0-.511.092-1.002.48zM21.255 10.612c-.092.092-.266.256-.389.358s-.194.225-.164.286c.041.061.174-.01.307-.153.153-.164.307-.235.399-.204.123.051.164 0 .164-.204 0-.307-.082-.327-.317-.082zM22.196 10.571c-.072.082-.153.307-.184.511-.061.368-.051.368.307.368.368 0 .48-.123.48-.521 0-.102-.072-.194-.153-.194s-.153-.072-.153-.153c0-.194-.143-.194-.297-.01zM23.065 10.837c-.235.583-.215.634.225.593.378-.031.378-.031.378-.491 0-.389-.041-.46-.215-.491-.174-.02-.256.061-.389.389zM23.995 10.643c.041.133.092.174.153.112.112-.112.031-.327-.123-.327-.041 0-.061.092-.031.215zM24.639 10.53a.11.11 0 0 0 .102.102.102.102 0 0 0 .102-.102c0-.061-.041-.102-.102-.102a.102.102 0 0 0-.102.102zM28.115 10.571c0 .02.072.092.153.164.123.102.153.102.153-.041 0-.092-.072-.164-.153-.164s-.153.02-.153.041zM28.831 11.052c0 .164.041.194.225.143.174-.061.204-.041.143.102-.061.164-.041.164.112.041.102-.072.204-.153.225-.164.082-.061-.348-.327-.521-.337-.123 0-.184.082-.184.215zM17.615 11.737c-.164.102-.849.971-.849 1.073 0 .041.215.072.48.051.46-.031.511-.061.818-.542.184-.276.337-.542.337-.583 0-.102-.624-.102-.787 0zM21.807 11.767a.285.285 0 0 0-.072.245c.031.072-.082.215-.256.317-.491.296-.409.45.245.45.613 0 .644-.031.818-.797.061-.317.061-.327-.276-.327-.194 0-.399.051-.46.112zM22.717 12.054c-.204.665-.174.726.337.726.256 0 .46-.031.47-.082 0-.041.01-.286.02-.562l.031-.48h-.378c-.337 0-.378.031-.48.399zM29.24 11.737c0 .051.092.174.215.286.123.102.276.317.358.47.133.245.215.286.603.286.256 0 .46-.031.46-.061 0-.041-.164-.286-.368-.562-.337-.47-.399-.501-.818-.501-.245 0-.45.041-.45.082zM24.486 12.371c.031.051.082.102.112.102.02 0 .041-.051.041-.102 0-.061-.051-.102-.112-.102-.051 0-.072.041-.041.102zM18.167 12.534a.263.263 0 0 0-.072.164c0 .133.511.061.542-.072.02-.123-.368-.194-.47-.092zM22.39 13.526c-.051.266-.102.511-.102.532 0 .031.143.051.307.051.215 0 .327-.061.368-.184.031-.092.123-.307.204-.46.204-.409.194-.429-.266-.429-.399 0-.409 0-.511.491zM30.058 13.035c0 .031.041.133.092.235.051.092.143.296.204.45.102.266.153.286.675.286.634 0 .665-.051.337-.624-.215-.389-.235-.399-.767-.399-.296 0-.542.02-.542.051zM16.358 13.495c-.112.215-.204.44-.204.501 0 .051.256.112.562.133l.552.031.164-.48c.082-.266.153-.501.153-.532s-.225-.061-.511-.061c-.491 0-.511.01-.716.409zM17.656 13.567c-.143.491-.143.491.112.521.317.041.389-.041.47-.573.061-.409.051-.429-.194-.429-.215 0-.276.072-.389.48zM20.907 13.158c-.45.112-.491.603-.051.695.164.041.327.112.358.164.072.112.869.123.869.01.01-.041.051-.266.092-.511l.082-.429-.573.01a7.49 7.49 0 0 0-.777.061zM29.546 13.178c0 .051.041.123.092.153.041.031.112.194.143.368.041.174.133.307.215.307.133 0 .133-.061-.031-.429-.164-.399-.419-.644-.419-.399zM26.673 13.505a.68.68 0 0 0-.041.399c.051.164.153.204.521.204.573 0 .593-.184.041-.542-.399-.256-.409-.256-.521-.061zM19.752 13.505c-.143.051-.225.164-.204.256.031.174.767.48.849.348.031-.051-.01-.102-.072-.133-.102-.031-.102-.092-.01-.256.194-.327-.061-.419-.562-.215zM28.34 13.618c-.184.184-.153.286.153.399.368.143.491-.031.204-.296-.184-.174-.266-.194-.358-.102zM29.73 14.293c-.256.02-.389.082-.389.184 0 .082.061.143.143.143s.215.082.286.184c.153.215.808.562.889.47.061-.061-.307-.399-.532-.48-.092-.031-.092-.092 0-.256.153-.256.102-.286-.399-.245zM30.978 14.334c0 .041.123.102.286.143.153.031.337.082.409.102.082.02.123-.031.102-.143-.02-.123-.133-.174-.419-.174-.204 0-.378.031-.378.072zM17.687 14.385c-.235.092-.307.245-.307.675v.389l.675-.031c.654-.031.685-.041.716-.307.02-.194-.031-.296-.153-.337a1.002 1.002 0 0 1-.368-.256c-.194-.204-.296-.235-.562-.133zM20.161 14.497c-.082.235.133.358.378.215.194-.123.256-.102.654.296.573.562.746.562.828-.031.041-.256.041-.511.01-.562-.102-.164-1.799-.092-1.871.082zM22.226 14.558a1.8 1.8 0 0 0-.02.532c.031.296.031.296.746.296.654 0 .716-.02.746-.225.02-.143-.031-.235-.174-.286-.112-.031-.296-.174-.409-.317-.266-.337-.797-.348-.889 0zM26.725 14.538c.031.133.061.358.061.511 0 .276.02.286.573.286h.573l-.072-.44c-.041-.235-.092-.46-.123-.511-.02-.041-.276-.072-.562-.072-.48 0-.511.01-.45.225zM28.279 14.507a.668.668 0 0 0-.143.491c.031.276.061.286.624.317.317.02.583 0 .583-.031s-.051-.266-.112-.521c-.112-.419-.143-.45-.45-.45-.194 0-.399.082-.501.194zM16 14.538c-.02.072-.061.307-.102.511l-.061.389h1.319l.041-.511.031-.511h-.593c-.378 0-.603.041-.634.123zM26.275 14.988c-.082.204-.082.296.02.358.174.112.286.01.286-.266 0-.358-.184-.409-.307-.092zM18.965 15.029c-.102.327.02.409.624.409.419 0 .552-.041.552-.153 0-.184-.235-.307-.736-.399-.317-.061-.378-.041-.44.143zM30.947 15.008c-.286.061-.143.276.215.307.235.02.327-.01.327-.112 0-.164-.256-.256-.542-.194zM29.546 15.182c0 .082.072.153.164.153.143 0 .143-.031.041-.153-.072-.082-.143-.153-.164-.153s-.041.072-.041.153zM23.974 15.223c-.061.112.092.235.194.143.092-.092.072-.235-.031-.235-.061 0-.123.041-.164.092zM26.224 15.652c-.041.061-.092.348-.102.634l-.041.532.256-.307c.276-.348.348-.971.102-.971-.082 0-.184.051-.215.112zM26.755 16.072c-.031.297-.02.583.031.624.041.051.317.072.624.051l.552-.031v-1.125l-1.145-.061-.061.542zM28.217 16.092c0 .624.051.665.695.593l.429-.041V15.54h-1.125v.552zM29.597 15.663c-.092.286-.102 1.002-.01 1.002.133 0 1.186-.92 1.186-1.033 0-.143-1.125-.112-1.176.031zM32.47 15.663c-.204.716-.235.9-.184.941.031.031.297.061.603.061.491 0 .552-.031.644-.266.061-.143.102-.399.102-.562 0-.296-.01-.296-.562-.296-.368 0-.583.041-.603.123zM16.235 15.714c-.215.02-.389.061-.389.092s.051.256.112.511l.112.45h.654c.716 0 .705.01.542-.675-.123-.491-.092-.47-1.033-.378zM17.38 15.755c0 .051.051.307.112.562l.112.45h1.319l-.072-.491c-.031-.266-.082-.511-.112-.562-.072-.112-1.36-.082-1.36.041zM19.067 16.123c.041.266.092.521.123.562.02.051.276.082.552.082.48 0 .501-.01.399-.204a1.135 1.135 0 0 1-.082-.542l.031-.327-1.094-.061.072.491zM21.848 15.847c.031.112.072.204.092.204s.041-.092.041-.204c0-.112-.041-.204-.092-.204s-.072.092-.041.204zM22.206 16.174l.031.542 1.482.061v-1.135h-1.544l.031.532zM23.923 16.204c0 .48.031.562.194.562.215 0 .317-.194.317-.562s-.102-.562-.317-.562c-.164 0-.194.082-.194.562zM14.15 15.898c-.031.082-.02.327.031.532l.092.389 1.687.061-.164-.378c-.082-.204-.153-.46-.153-.562 0-.174-.082-.194-.716-.194-.542 0-.736.041-.777.153zM28.258 16.951c-.061.041-.164.204-.215.378-.061.164-.143.389-.184.491-.072.164-.02.184.46.153l.532-.031.184-.48c.102-.266.153-.501.123-.532-.082-.092-.767-.072-.9.02zM29.393 16.992c-.031.072-.112.327-.194.562l-.153.44h.603c.644 0 .818-.133.818-.603 0-.184-.031-.194-.266-.112-.419.164-.552.123-.552-.153 0-.266-.174-.348-.256-.133zM32.102 17.145a3.944 3.944 0 0 1-.266.562l-.153.286h1.237l.245-.501c.143-.276.225-.521.194-.562-.041-.031-.307-.061-.613-.061-.501 0-.552.02-.644.276zM19.374 17.073c-.02.031.051.256.143.511l.164.46.593.031c.317.02.583-.01.583-.061 0-.184-.297-.808-.44-.93-.143-.112-.971-.123-1.043-.01zM22.288 17.421c0 .573.153.695.838.654l.542-.031.031-.542.031-.532h-1.442v.45zM23.944 17.503l.031.542.491.031c.501.031.644-.123.337-.378-.082-.061-.194-.256-.266-.419-.092-.225-.194-.307-.378-.307-.235 0-.245.031-.215.532zM25.62 17.452c-.204.235-.368.47-.368.532s.194.112.46.112h.45l.164-.532c.082-.286.153-.542.153-.552s-.112-.01-.245 0c-.143 0-.389.184-.613.44zM26.592 17.421c-.061.256-.112.48-.112.511s.256.061.562.061c.552 0 .552 0 .654-.389.174-.613.164-.634-.44-.634h-.552l-.112.45zM14.446 17.574c.133.317.286.532.419.562.276.072 1.697.082 1.697.01 0-.031-.112-.286-.256-.562l-.256-.511h-1.82l.215.501zM16.256 17.155c0 .041.133.297.307.562.296.46.317.48.797.48.276 0 .521-.031.552-.061.041-.031-.041-.276-.153-.552l-.225-.511H16.9c-.358 0-.644.041-.644.082zM17.963 17.605l.286.532.562-.031c.307-.01.573-.041.593-.051.01-.02-.061-.245-.153-.501l-.174-.48h-1.401l.286.532zM31.335 17.329c-.225.184-.327.215-.429.133-.153-.123-.153-.133-.317.245l-.123.286h.491c.48 0 .491-.01.716-.46.256-.521.143-.593-.337-.204zM21.838 17.666c-.194.378-.174.46.112.409.153-.02.174-.092.133-.389l-.061-.358-.184.337zM27.747 18.28c-.112.072-.552.869-.552.992 0 .031.215.051.47.031.44-.031.491-.061.716-.47.133-.235.245-.48.245-.532 0-.123-.716-.133-.879-.02zM28.688 18.668c-.143.266-.266.511-.266.562s.204.092.46.092c.419 0 .48-.031.818-.47.194-.266.358-.521.358-.562 0-.051-.245-.092-.552-.092-.552 0-.552 0-.818.47zM30.006 18.73l-.358.542.378.031c.348.031.429-.01.777-.389.491-.562.491-.716-.031-.716-.378 0-.429.041-.767.532zM31.284 18.648c-.164.256-.307.501-.307.562s.215.112.501.112c.47 0 .532-.031.869-.45.204-.235.368-.491.368-.562s-.204-.112-.562-.112c-.542 0-.562.01-.869.45zM17.513 18.382c-.245.02-.44.051-.44.082s.174.256.378.511c.358.419.419.45.869.45.266 0 .491-.031.491-.072 0-.133-.552-.859-.705-.93-.092-.041-.358-.061-.593-.041zM18.546 18.423c-.031.041.092.286.276.542.327.45.348.46.889.46h.552l-.307-.542-.307-.532h-.521c-.297-.01-.562.031-.583.072zM19.936 18.351c0 .112.327.716.491.889.102.123.307.184.603.184.235 0 .44-.031.44-.061 0-.041-.123-.286-.276-.562-.266-.491-.276-.501-.767-.501-.266 0-.491.02-.491.051zM21.47 18.587c0 .164.072.358.153.429s.153.194.153.266c0 .092.123.143.358.143.348 0 .358-.01.297-.286-.204-.808-.194-.787-.583-.818-.358-.031-.378-.02-.378.266zM22.574 18.863l.164.573.93-.061.031-.542.031-.532h-1.309l.153.562zM23.944 18.832c.031.491.051.542.286.573.378.031.501-.092.603-.624l.082-.48h-1.002l.031.532zM25.109 18.382c-.031.051-.082.276-.123.501-.072.48.031.583.47.491.235-.051.327-.153.45-.532.092-.266.164-.491.164-.511 0-.072-.91-.02-.961.051zM26.183 18.679c-.072.215-.153.45-.174.511-.041.102.082.133.44.133.48 0 .511-.02.726-.399.327-.573.297-.624-.317-.624-.542 0-.552 0-.675.378zM15.356 18.914l.44.511h1.779l-.757-1.022h-1.902l.44.511zM67.067 20.703c0 1.39-.01 1.503-.174 1.421-.307-.133-1.38-.174-1.769-.051-1.36.409-2.167 2.454-1.697 4.304.215.818.552 1.35 1.104 1.707.593.399 1.718.46 2.351.133.378-.194.429-.204.511-.061.072.123.266.164.787.164h.705l-.092-.389c-.051-.204-.092-2.198-.092-4.427v-4.059l-.225-.051a8.115 8.115 0 0 0-.818-.123l-.593-.072v1.503zm-.327 2.709.327.204v3.057l-.266.204c-.511.409-1.36.184-1.564-.409-.123-.358-.153-1.81-.051-2.331.041-.174.194-.46.348-.624.337-.368.716-.399 1.206-.102zM70.553 19.364c-.91.501-.511 1.902.552 1.902.317 0 .828-.44.91-.777.215-.849-.695-1.554-1.462-1.125zM85.388 19.394l-.644.153.031 3.957c.031 4.386.02 4.284.726 4.713.348.215 1.421.286 1.697.112.204-.133-.041-1.033-.286-1.033-.399 0-.419-.133-.419-3.619 0-1.861-.031-3.629-.061-3.926-.082-.603-.051-.593-1.043-.358zM27.082 19.609c-.092.01-.235.194-.327.389s-.245.378-.327.409c-.225.092-.184.245.051.245.225 0 1.125-.767 1.125-.961 0-.112-.194-.153-.521-.082zM27.686 20.018c-.276.256-.491.501-.491.542 0 .051.184.092.409.092.358 0 .491-.072.93-.48.276-.256.48-.491.46-.521-.031-.02-.225-.051-.44-.061-.327-.01-.46.051-.869.429zM28.882 20.1l-.613.552h.399c.327 0 .491-.082.951-.47.307-.266.532-.501.501-.532s-.184-.061-.348-.072c-.215-.02-.429.102-.889.521zM30.088 20.028c-.296.266-.542.521-.542.552 0 .041.143.072.317.072.327 0 1.728-.838 1.728-1.033 0-.051-.215-.092-.48-.092-.44.01-.552.061-1.022.501zM94.671 19.68c-1.626.45-2.658 1.902-2.811 3.967-.164 2.065.613 3.721 2.075 4.437 1.084.532 2.965.419 3.742-.204l.307-.245-.388-.521-.378-.532-.276.204c-.613.44-1.677.45-2.259.02-.716-.532-.971-1.401-.91-3.128.031-.869.092-1.247.256-1.605.511-1.135 1.615-1.503 2.679-.9.184.112.348.194.368.174.521-.716.685-1.053.593-1.196-.286-.46-2.034-.736-2.996-.47zM19.691 19.721c-.041.051.174.307.46.562.368.327.613.47.818.47.164 0 .297-.031.297-.082 0-.041-.184-.286-.419-.562-.337-.399-.47-.48-.757-.48-.194 0-.368.041-.399.092zM20.907 19.732c-.041.072.112.307.368.573.675.685.92.573.47-.215-.235-.419-.685-.603-.838-.358zM21.838 19.711c-.031.051.051.297.184.542.194.368.307.46.562.48.368.041.378-.01.112-.634-.174-.409-.235-.47-.501-.47-.164 0-.327.041-.358.082zM22.881 19.691c-.072.072.051.532.225.849.072.153.194.215.337.194.194-.031.225-.102.256-.573l.031-.532h-.399c-.215 0-.419.031-.45.061zM23.923 20.141c0 .429.031.511.194.511.184 0 .307-.215.47-.797.061-.204.031-.225-.296-.225h-.368v.511zM24.741 19.885a5.216 5.216 0 0 0-.164.521c-.061.235-.041.256.225.225.215-.02.348-.133.521-.44.133-.225.235-.44.235-.491 0-.041-.164-.072-.358-.072-.296 0-.378.051-.46.256zM25.539 20.141c-.307.552-.245.705.225.511.245-.102.92-.808.92-.961 0-.031-.194-.061-.429-.061-.419 0-.45.031-.716.511zM16.818 20.243l.695.511h.818c.46 0 .787-.041.736-.082l-.624-.511-.532-.429h-1.789l.695.511zM18.464 19.946c.399.45 1.043.808 1.431.808h.389l-.501-.511c-.47-.48-.542-.511-1.012-.511h-.501l.194.215zM47.898 19.854c-.02.072-.092.726-.153 1.462-.061.726-.225 2.525-.358 3.987a115.8 115.8 0 0 0-.256 2.842c0 .164.092.174.849.153l.838-.031.174-2.454c.092-1.35.174-2.658.184-2.914.01-.368.143.041.675 1.994.358 1.35.705 2.679.777 2.944l.123.491 1.523-.061.767-2.709a175.4 175.4 0 0 1 .818-2.863c.061-.153.245 1.963.378 4.325l.072 1.298h1.707l-.061-.542c-.02-.286-.194-2.208-.378-4.263l-.327-3.732-2.239-.061-.634 2.382c-.358 1.309-.675 2.535-.705 2.709-.041.184-.092.337-.133.337-.031 0-.358-1.217-.736-2.689l-.665-2.679-1.094-.031c-.828-.02-1.104.01-1.145.102z"/><path d="M25.61 21.265c-.215.225-.44.409-.501.409-.051 0 .02-.133.174-.286.337-.348.348-.429.041-.429-.143 0-.327.123-.47.317-.276.368-.409.327-.164-.051.174-.266.174-.266-.082-.266-.204 0-.276.061-.327.307-.102.46-.297.521-.215.061.041-.235.031-.368-.041-.368-.051 0-.102.112-.102.245 0 .143-.041.286-.102.317-.061.041-.102-.072-.102-.245 0-.245-.041-.317-.204-.317-.225 0-.256.123-.102.419.061.112.072.194.01.194-.051 0-.143-.143-.204-.307-.072-.235-.164-.307-.368-.307-.245 0-.256.02-.143.225.072.133.174.266.235.307s.072.112.02.153c-.041.041-.215-.092-.389-.307-.164-.204-.378-.378-.47-.378-.112 0-.061.102.184.358.184.194.317.378.276.419-.031.031-.235-.123-.46-.358-.296-.307-.48-.419-.695-.409h-.297l.245.174c.491.337.675.511.603.583-.041.041-.286-.092-.552-.297-.521-.399-.808-.511-1.176-.45-.204.031-.133.102.419.378.368.194.613.368.552.389s-.46-.153-.9-.378c-.726-.389-.849-.419-1.493-.389-.389.01-.695.031-.685.041.092.092 1.574.593 2.065.695l.613.133.082.705c.051.389.072 1.36.041 2.167-.051 1.605-.112 1.789-.726 1.942l-.317.082v1.523h7.974l.031-.746c.031-.716.02-.736-.204-.736-.286 0-.654-.235-.808-.532-.072-.133-.112-.951-.102-2.351.01-1.38-.02-2.198-.092-2.28-.082-.092-.031-.153.194-.256.164-.061.378-.204.48-.317.164-.184.164-.194-.164-.194-.317 0-.736.245-1.176.675-.092.092-.194.133-.235.092s.082-.194.266-.348c.368-.317.409-.419.143-.419-.102 0-.368.184-.583.409zm-1.482.726c0 .184-.02.194-.153.092-.082-.072-.153-.164-.153-.215s.072-.092.153-.092c.092 0 .153.092.153.215zm.409-.123c0 .051-.072.143-.153.215-.123.102-.153.102-.153-.02 0-.082.031-.184.072-.215.092-.102.235-.092.235.02zm-.491.481c.603.644.726.951.562 1.431-.143.429-.46.654-.337.235.225-.716.215-.777-.389-1.401-.317-.327-.573-.634-.573-.665 0-.204.358-.01.736.399zm-.48.46c.041.051 0 .184-.092.286-.204.225-.215.818 0 1.114.266.389.348.256.348-.603 0-.613.031-.818.133-.777.082.02.123.327.133.971.02.777.051.981.235 1.206.296.378.184.44-.164.102-.164-.153-.46-.419-.675-.603-.307-.256-.399-.419-.45-.746-.082-.603.317-1.309.532-.951zm.511 2.699c0 .307-.051.511-.123.532-.102.041-.133-.112-.133-.532s.031-.573.133-.542c.072.031.123.235.123.542zm-.542-.235c-.072.072-.123.082-.123.02 0-.143.123-.266.194-.194.02.031-.01.112-.072.174z"/><path d="M27.553 21.122c-.573.378-.665.491-.358.399.501-.143 1.227-.491 1.227-.573 0-.184-.47-.082-.869.174zM28.708 21.02c-.245.123-.389.348-.235.348s.869-.348.869-.419c0-.143-.327-.102-.634.072zM74.878 21.96c-.705.245-1.012.46-1.37.961-.481.654-.644 1.37-.593 2.525.061 1.513.47 2.259 1.462 2.73.951.45 2.382.266 3.088-.389l.225-.204-.327-.45c-.184-.245-.358-.44-.399-.45-.041 0-.245.112-.45.256-.399.266-.93.337-1.278.153-.409-.225-.552-.695-.552-1.891 0-.91.041-1.196.194-1.482.368-.675.808-.787 1.513-.389.348.194.419.204.491.082a6.25 6.25 0 0 1 .358-.511l.266-.358-.266-.225c-.276-.245-1.155-.542-1.574-.542-.143.01-.501.092-.787.184zM80.593 21.889c-.634.102-1.973.685-1.973.849 0 .174.613 1.104.695 1.063.828-.429 1.36-.624 1.738-.634.532-.01.736.194.736.757v.368l-.961.112c-1.452.174-2.075.573-2.321 1.503-.143.521-.051 1.309.194 1.728.511.879 2.27 1.135 3.21.47l.286-.215.368.317c.194.174.409.317.481.317s.307-.204.521-.46l.378-.46-.256-.317c-.266-.307-.266-.327-.266-2.116 0-.992-.051-1.973-.102-2.178-.112-.399-.521-.849-.92-.992-.429-.164-1.247-.215-1.81-.112zm1.196 4.273c0 .644-.02.726-.266.92-.603.47-1.37.102-1.37-.654 0-.603.45-.91 1.411-.961.215-.01.225.031.225.695zM117.603 21.879c-1.421.297-2.137 1.574-1.574 2.822.245.542.685.808 1.697 1.012.981.204 1.155.297 1.278.624.133.337-.123.838-.47.92-.419.102-1.135-.041-1.799-.348l-.603-.296-.296.583-.296.593.603.256c1.554.675 3.088.573 3.977-.266.971-.92.797-2.484-.348-3.026-.245-.112-.501-.215-.552-.215-.337 0-1.452-.45-1.544-.624-.296-.552.388-1.002 1.247-.818.276.061.634.184.787.266l.296.143.215-.511c.123-.276.194-.552.164-.603-.102-.164-1.125-.491-1.738-.542-.337-.031-.808-.02-1.043.031zM58.704 22.001c-.45.153-1.217.838-1.452 1.319-.112.215-.256.716-.307 1.125-.194 1.37.123 2.566.869 3.251.634.583 1.084.757 2.045.757.675.01.92-.041 1.38-.256.307-.143.654-.327.757-.419.194-.143.194-.153-.102-.624-.164-.256-.317-.46-.348-.44-1.135.675-1.943.736-2.474.194-.286-.276-.552-1.053-.409-1.196.031-.031.849-.051 1.83-.051h1.769v-.562c0-2.035-.849-3.108-2.505-3.18-.389-.02-.869.02-1.053.082zm1.646 1.432c.112.143.204.44.215.665l.01.389-1.922.061.051-.47c.112-.992 1.104-1.37 1.646-.644zM71.31 21.93c-.051.02-.317.061-.583.102l-.491.061v6.226h1.636v-6.441l-.225.01c-.133 0-.276.02-.337.041zM100.396 21.971c-.828.266-1.298.705-1.697 1.595-.245.521-.286.757-.286 1.534-.01 1.564.511 2.566 1.626 3.077.583.276 1.452.327 2.116.123.624-.184 1.36-.9 1.626-1.595.337-.838.337-2.403.01-3.139-.286-.613-.746-1.114-1.298-1.401-.44-.235-1.646-.348-2.096-.194zm1.35 1.278c.337.256.491.828.491 1.861 0 1.605-.348 2.28-1.114 2.147-.695-.112-.93-.654-.93-2.127 0-.981.112-1.452.429-1.789.245-.266.838-.317 1.125-.092zM105.477 22.052c-.593.164-.603.164-.532.48.041.174.092 1.544.123 3.047l.051 2.74h1.615v-4.601l.337-.204c.215-.143.47-.204.726-.184l.409.031.184-.613c.102-.337.164-.675.133-.746-.061-.153-.797-.164-1.104-.01-.123.061-.368.256-.542.419l-.317.296-.123-.419c-.133-.45-.123-.45-.961-.235zM109.986 22.001l-.593.102v4.437c0 5.05-.112 4.55.971 4.253l.613-.174.02-1.206c0-.654.051-1.196.102-1.196.041 0 .235.051.429.112.562.184 1.585.061 2.065-.256.46-.307.961-1.033 1.125-1.636.061-.225.092-.91.072-1.544-.031-1.033-.061-1.196-.337-1.738-.44-.869-1.043-1.227-2.034-1.227-.573 0-.808.051-1.114.225-.481.286-.481.286-.481-.02 0-.143-.051-.245-.123-.245-.072.01-.399.061-.716.112zm2.648 1.36c.307.215.44.757.44 1.738 0 1.002-.123 1.472-.47 1.799-.317.297-.9.327-1.298.061l-.276-.174v-3.169l.337-.204c.388-.245.961-.266 1.268-.051z"/></symbol><symbol id="icon-4" viewBox="0 0 94 32"><path d="M9.28 4.747v4.64H0V32h22.613v-9.28l4.619-.021 4.608-.032.032-11.285.021-11.275H9.28v4.64zm18.56 6.613v7.307h-5.227v-9.28h-9.28V4.054H27.84v7.307zM9.28 18.027v4.693h9.28v5.227H4.053V13.334H9.28v4.693zM18.56 16v2.667h-5.227v-5.333h5.227v2.667zM73.653 11.275a4.847 4.847 0 0 0-3.851 3.072c-.299.789-.277 2.464.053 3.253.533 1.291 1.675 2.347 2.997 2.752.885.267 2.528.224 3.36-.085 1.237-.48 2.091-1.227 2.624-2.293 1.707-3.467-1.205-7.232-5.184-6.699zm1.931 2.464c1.771.917 1.781 3.392.011 4.299-1.269.661-2.773.139-3.435-1.173-.256-.512-.235-1.461.043-2.005s.971-1.152 1.483-1.301c.544-.149 1.408-.064 1.899.181zM36.693 15.936v4.437h2.229l.064-3.349 2.176 3.349h1.397c.757 0 1.387-.021 1.387-.043s-.565-.789-1.269-1.696a141.455 141.455 0 0 1-1.333-1.76c-.032-.064.181-.224.512-.373.693-.32 1.077-.832 1.237-1.653.235-1.248-.288-2.421-1.333-2.955l-.619-.32-4.448-.064v4.427zm3.744-2.304c.277.245.341.384.341.757 0 .683-.363.992-1.205 1.056l-.64.043v-2.155h.587c.491 0 .64.053.917.299zM48.235 15.755c-.885 2.336-1.643 4.331-1.675 4.427-.075.181.021.192 1.152.192h1.237l.235-.747.245-.747h3.36l.235.747.245.747h1.205c.661 0 1.205-.021 1.205-.053 0-.043-2.635-7.008-3.253-8.619-.064-.16-.235-.181-1.323-.181h-1.259l-1.611 4.235zm3.402-.107.469 1.365-.949.032c-.512.011-.971.011-.992-.021-.064-.064.853-2.731.939-2.731.043 0 .277.608.533 1.355zM59.093 12.48v.96H60.8c1.035 0 1.707.043 1.707.107 0 .053-.864 1.515-1.92 3.253-1.045 1.728-1.963 3.243-2.027 3.36-.117.213-.085.213 3.68.213h3.787v-1.92l-1.867-.021-1.877-.032 2.08-3.445 2.08-3.435h-7.349v.96zM84.224 11.808c-.032.16-.352 2.027-.704 4.139s-.672 3.979-.704 4.139l-.064.299 2.304-.064.352-2.293c.192-1.259.363-2.389.373-2.507.032-.192.395.64 1.6 3.755l.416 1.099h.917l.992-2.432c.544-1.333 1.013-2.453 1.056-2.496s.235 1.045.437 2.421l.363 2.507h1.152c1.141 0 1.152 0 1.099-.245-.064-.299-1.44-8.437-1.44-8.533 0-.043-.512-.075-1.152-.075h-1.152l-.843 2.293c-.469 1.259-.875 2.293-.907 2.293s-.437-1.024-.907-2.272l-.853-2.261-2.272-.064-.064.299z"/></symbol><symbol id="icon-5" viewBox="0 0 54 32"><path d="M7.463.789C5.932 2.446 5.029 4.446 5.029 6.206c0 .411-.046.777-.091.811-.057.034-.309-.08-.549-.263-.983-.709-2.171-1.223-3.451-1.486-.971-.206-.937-.229-.937.731 0 .491.046.857.114.857s.114.149.114.331c0 .194.057.377.114.411.069.034.114.217.114.4 0 .766 1.28 2.891 2.366 3.909.48.446 2.251 1.714 4.034 2.88.217.149.617.503.88.8.263.286.526.526.594.526.057 0 .354-.263.663-.583.297-.32 1.269-1.063 2.149-1.657 2.046-1.36 2.96-2.126 3.657-3.029.651-.869 1.337-2.274 1.589-3.28.194-.789.251-2.423.069-2.423-.263 0-1.371.263-2 .48-.731.251-1.429.617-2.183 1.131-.263.183-.503.286-.549.251-.034-.046-.069-.343-.069-.686 0-1.086-.469-2.606-1.177-3.84-.446-.766-2-2.503-2.217-2.469-.046.011-.411.354-.8.777zM27.863 7.36c-.354.149-.846.423-1.086.617-.56.434-1.154 1.589-1.246 2.377-.069.594.103 1.6.343 2.046.286.526 1.086 1.246 1.726 1.554.571.274.834.331 1.554.331.811 0 1.589-.16 1.589-.32 0-.046.023-.503.046-1.029.023-.514 0-.96-.046-.994-.057-.034-.286.069-.526.229-.514.343-1.337.389-1.863.091-.8-.469-1.086-1.726-.56-2.503.263-.389 1.04-.846 1.451-.846.309 0 .811.229 1.12.491.137.114.297.183.354.149.114-.069.091-1.977-.023-2.091-.046-.046-.263-.149-.503-.229-.663-.229-1.589-.183-2.331.126zM40.971 7.371c-.857.411-1.474.994-1.829 1.726-.274.56-.32.789-.32 1.577.011 1.531.731 2.686 2.069 3.326.549.263.811.32 1.68.32.914.011 1.097-.023 1.714-.32.811-.4 1.417-1.006 1.783-1.749.206-.434.263-.743.263-1.577.011-.891-.034-1.109-.274-1.589-.343-.674-.96-1.291-1.554-1.589a11.764 11.764 0 0 1-.64-.309c-.114-.057-.674-.103-1.257-.103-.891.011-1.154.057-1.634.286zM43.486 9.2c.469.274.971 1.04.971 1.486 0 .354-.503 1.223-.857 1.497-.457.343-1.429.389-1.909.069-1.223-.811-1.223-2.331.023-3.097.537-.32 1.177-.309 1.771.046zM31.36 7.303c-.023.023-.046.4-.046.823v.777l1.429.069.023 2.457c.011 1.349.034 2.526.034 2.606 0 .114.217.137.891.114l.88-.034.034-2.594.023-2.594 1.429-.069V7.304l-2.32-.023c-1.28-.011-2.354 0-2.377.023zM37.349 7.291c-.686.034-.777.057-.834.286-.034.137-.046 1.669-.034 3.394l.034 3.143 1.886.069v-3.429c0-2.629-.034-3.429-.137-3.451-.08-.023-.491-.034-.914-.011zM46.857 7.371c-.103.126-.149 6.263-.046 6.594.057.171.206.206.971.206h.903v-1.886c0-1.04.046-1.886.103-1.886s.731.811 1.509 1.794c.777.994 1.463 1.84 1.52 1.897.069.046.514.069.983.057l.857-.034.034-3.303c.011-1.909-.023-3.349-.08-3.429-.069-.08-.4-.103-.949-.069l-.834.057v1.863c0 1.177-.046 1.84-.114 1.817-.091-.034-2.137-2.583-2.834-3.52-.16-.229-1.863-.354-2.023-.16zM21.371 7.52a.592.592 0 0 1-.091.309c-.057.069-.286.629-.526 1.257s-.469 1.246-.526 1.371c-.103.251-.663 1.691-.8 2.057-.046.126-.137.354-.194.514-.069.16-.183.434-.251.606s-.126.366-.126.423c0 .069.434.114.983.114h.971l.24-.549c.126-.297.297-.571.366-.617.069-.057.583-.08 1.131-.08l1.006.011.183.423c.091.229.217.491.263.583.057.137.297.171 1.04.171 1.04 0 1.074-.034.8-.686a73.085 73.085 0 0 1-.811-2.114l-.229-.629-.229-.629c-.08-.217-.206-.56-.286-.743-.069-.194-.206-.526-.286-.743-.069-.217-.183-.503-.229-.629a4.091 4.091 0 0 1-.16-.434c-.057-.171-.217-.194-1.154-.194-.971 0-1.086.023-1.086.206zm1.258 2.571c0 .149.046.309.103.366.057.069.137.309.171.537l.08.434h-.526c-.434 0-.514-.034-.514-.217 0-.126.057-.263.114-.297.069-.034.114-.171.114-.286 0-.274.24-.8.366-.8.046 0 .091.114.091.263zM26.914 15.394c-1.531.469-2.229 1.44-2.229 3.131 0 1.886 1.189 3.074 3.097 3.074 1.714 0 2.88-1.097 2.971-2.8l.046-.686h-3.086v1.143l.606.034c.617.034.709.149.434.503-.423.571-1.577.469-2.034-.171-.297-.411-.4-1.28-.206-1.84.183-.583.709-.983 1.28-.983.366 0 .537.08.857.4.457.457.48.469 1.04.217.949-.4.983-.491.469-1.109-.4-.491-.834-.731-1.646-.949-.697-.194-.869-.183-1.6.034zM46.994 15.406c-.789.08-1.406.674-1.634 1.543-.126.434-.114.583.057 1.029.194.526.411.674 1.817 1.269.514.217.663.491.366.709-.309.229-.823.194-1.383-.091-.274-.137-.514-.229-.537-.194a7.626 7.626 0 0 0-.354.617l-.309.56.263.206c.674.514 2.114.697 2.846.377.926-.4 1.257-.914 1.269-1.966 0-.766 0-.777-.48-1.2-.263-.24-.651-.457-.869-.503-.217-.034-.423-.114-.457-.171s-.16-.103-.286-.103c-.183 0-.229-.069-.194-.32.034-.274.091-.309.48-.343.24-.023.491.011.56.08.274.274.537.126.834-.457.16-.32.274-.594.251-.606-.434-.309-1.509-.526-2.24-.434zM21.029 15.749c-.126.149-.229.354-.229.434a1 1 0 0 1-.103.366c-.069.103-.4.96-.754 1.909-.697 1.84-.823 2.171-.983 2.48-.194.389-.114.434.766.434h.857l.457-1.029h.823c.457 0 .88.046.949.091.08.046.217.274.309.503l.183.434h.857c.48 0 .869-.046.869-.103 0-.091-.994-2.766-1.257-3.383-.057-.126-.217-.56-.354-.971-.286-.846-.526-1.36-.651-1.383-.046-.011-.4-.023-.8-.046-.64-.023-.743 0-.937.263zm1.188 2.434c.24.72.183.903-.274.903-.389 0-.434-.16-.217-.811.069-.217.137-.457.171-.537.069-.24.126-.16.32.446zM32.789 15.566c-.103.08-.32.503-.503.949-.171.434-.354.903-.4 1.029-.549 1.371-1.371 3.589-1.371 3.691 0 .091.263.137.857.137.834 0 .857-.011.926-.32.149-.606.343-.709 1.303-.709h.88l.194.514.206.514h.823c.457 0 .857-.034.891-.069s-.057-.377-.217-.766c-.4-.983-.423-1.029-.891-2.309-.229-.629-.457-1.246-.514-1.371s-.183-.469-.286-.766c-.114-.297-.286-.56-.389-.594-.423-.103-1.337-.069-1.509.069zm1.017 2.72c.023.16.091.343.16.423.171.217 0 .377-.434.377s-.446-.034-.24-.686c.16-.514.457-.583.514-.114zM36.937 15.531c-.103.069-.137.743-.114 2.937l.034 2.846 1.543.069v-2.926c0-1.6-.034-2.926-.08-2.926-.457-.069-1.269-.08-1.383 0zM38.994 15.52c-.194.057-.194 5.634 0 5.829.149.149.971.183 1.28.069.16-.057.183-.32.183-1.657 0-.869.046-1.589.091-1.589.057 0 .651.72 1.337 1.589 1.394 1.817 1.314 1.771 2.834 1.623.046-.011.08-1.326.08-2.926s-.034-2.926-.08-2.926c-.309-.057-1.051-.08-1.257-.034-.263.046-.263.08-.263 1.646 0 .88-.034 1.6-.08 1.6-.057-.011-.274-.251-.491-.537s-.56-.709-.743-.937a42.26 42.26 0 0 1-.846-1.063c-.263-.366-.583-.686-.697-.72-.229-.069-1.109-.046-1.349.034zM49.657 15.52c-.034.034-.057.354-.057.72v.663l1.2.069.114 4.457.503.034c.286.023.629.011.766-.023.263-.069.274-.08.297-2.274l.034-2.194 1.2-.069v-.663c0-.526-.046-.686-.194-.743-.229-.091-3.771-.069-3.863.023zM6.857 17.954c-1.257.331-1.829.583-2.823 1.257-1.086.754-2.24 2.4-2.674 3.874-.103.343-.16 1.04-.149 2.057.011 1.257.057 1.657.251 2.137.777 2.011 2.331 3.669 4.046 4.331.263.103.537.24.594.297.16.137 4.411.114 4.411-.023 0-.069.091-.114.206-.114.309 0 1.429-.617 2.137-1.166 1.086-.846 2.091-2.389 2.469-3.76.206-.754.263-2.583.091-3.303-.217-.994-1.04-2.606-1.703-3.349-1.051-1.166-2.149-1.794-3.943-2.251-.56-.137-2.366-.137-2.914.011zm1.954 2.915c.149.16.743.651 1.303 1.063 1.269.949 1.829 1.783 1.943 2.926.274 2.56-2.274 4.651-4.789 3.92-1.92-.56-3.097-2.606-2.537-4.446.32-1.04.903-1.714 2.423-2.823.457-.331.88-.674.96-.766.206-.24.377-.217.697.126zM39.657 22.949c-1.931.96-2.32 3.966-.697 5.429a3.42 3.42 0 0 0 3.874.526 3.06 3.06 0 0 0 1.691-2.834l-.011-.526-1.589-.034c-1.783-.034-1.794-.023-1.76.72.023.617.149.743.731.743.594 0 .697.114.354.434-.331.309-.72.4-1.28.286-.686-.149-1.12-.823-1.12-1.726 0-1.109.617-1.851 1.554-1.851.32 0 .48.091.823.469l.423.469.789-.309c.434-.171.789-.366.789-.446 0-.274-.903-1.189-1.429-1.429-.8-.377-2.297-.343-3.143.08zM25.246 22.903c-.16.171-.137 4.137.034 4.629.377 1.12 1.303 1.726 2.663 1.726 1.28-.011 2.171-.503 2.583-1.463.183-.434.217-.8.217-2.72 0-1.394-.046-2.217-.114-2.229-.057 0-.434 0-.823-.011h-.72l-.057 2.057c-.057 1.863-.08 2.091-.297 2.389-.183.24-.354.331-.709.354-.411.034-.491-.011-.754-.354-.297-.389-.297-.411-.297-2.4 0-1.12-.034-2.023-.08-2.034-.777-.046-1.554-.023-1.646.057z"/><path d="M31.383 22.926c-.091.08-.103 1.074-.069 3.143l.057 3.017h1.6l.034-1.6c.011-.88.08-1.646.126-1.691.057-.057.263.114.491.411 1.314 1.76 2.217 2.834 2.434 2.891.126.034.526.046.869.023l.617-.034.034-3.12.023-3.109h-1.714v1.646c0 .914-.046 1.68-.103 1.714s-.194-.08-.309-.251c-.114-.171-.251-.366-.32-.434s-.434-.526-.811-1.017c-1.303-1.691-1.223-1.634-2.08-1.68-.446-.023-.811.023-.88.091zM49.143 22.971c-.137.263-.069 5.92.08 6.069.057.057.434.103.846.08l.731-.034.034-.949c.023-.514.08-.937.126-.937.057 0 .366.434.686.971l.606.971h1.92v-.297c0-.171-.069-.366-.16-.434-.251-.206-1.44-1.76-1.44-1.886 0-.057.114-.126.251-.149s.4-.24.583-.503c.606-.857.411-2.103-.411-2.72-.286-.217-.526-.251-2.046-.297-1.451-.046-1.726-.034-1.806.114zm2.4 1.315c.286.149.343.251.343.583 0 .32-.057.411-.297.503-.629.24-.731.171-.731-.491 0-.823.091-.903.686-.594zM19.109 25.966l.034 3.12h1.6l.114-2.4h2.057l.114 2.4h1.6l.034-3.12.023-3.109h-1.703l-.034 1.109-.034 1.12h-2.057l-.034-1.12-.034-1.109h-1.703l.023 3.109zM45.051 25.966l.034 3.12h3.429l.057-.606c.091-.869-.023-.994-.88-.891-.789.091-.994-.046-.926-.583.034-.32.046-.32.926-.354l.88-.034v-1.463l-1.771-.069V24.4l1.771-.069v-1.474h-3.543l.023 3.109z"/></symbol><symbol id="icon-6" viewBox="0 0 206 32"><path d="M46.916 6.608a3.932 3.932 0 0 1-1.942.483c-2.019 0-3.159-1.342-3.159-3.207S43.129.571 45.118.571c.686 0 1.265.145 1.633.319v.947a3.33 3.33 0 0 0-1.613-.405c-1.43 0-2.241 1.101-2.241 2.425 0 1.4.841 2.376 2.193 2.376.618 0 1.101-.174 1.545-.425l.28.802.001-.001zM48.472.628h1.015v2.687h3.188V.628h1.015v6.366h-1.015v-2.82h-3.188v2.82h-1.015V.628zM57.458.6h.782l2.521 6.395H59.67l-.628-1.633h-2.357l-.608 1.633h-1.062L57.459.6h-.001zm1.275 3.931-.522-1.449a94.46 94.46 0 0 1-.338-1.025h-.019a10.66 10.66 0 0 1-.348 1.024l-.522 1.449h1.75zM62.086.628h1.594c.618 0 1.052.107 1.381.291.628.319.88.878.88 1.497 0 .86-.493 1.42-1.256 1.662v.019c.193.107.444.454.782 1.024l1.091 1.874h-1.169l-.976-1.691c-.309-.55-.541-.821-.715-.859h-.599v2.55h-1.015V.629l.001-.001zm1.555 2.975c.319 0 .551-.057.763-.174.29-.174.483-.483.483-.909 0-.358-.135-.667-.415-.841-.174-.135-.425-.221-.821-.221H63.1v2.144h.541v.001zM68.048.628h1.015v6.366h-1.015V.628zM72.28 1.488h-1.845v-.86h4.879l-.29.86h-1.729v5.507H72.28V1.488h-.001zM78 4.464 75.855.629h1.111l1.555 2.918h.019L80.057.629h1.101l-2.135 3.855v2.511h-1.025V4.464h.001zM85.024.628h3.391l-.29.86h-2.087v1.836h2.048v.859h-2.048v2.812h-1.015V.628zM89.691 3.835c0-1.932 1.324-3.264 3.178-3.264s3.168 1.353 3.168 3.264c0 1.911-1.353 3.256-3.168 3.256s-3.178-1.295-3.178-3.256zm5.275 0c0-1.439-.792-2.405-2.096-2.405s-2.096.917-2.096 2.405c0 1.488.841 2.396 2.096 2.396s2.096-.908 2.096-2.396zM97.933 5.816c-.145-.319-.213-.715-.213-1.16V.627h1.015v3.952c0 .329.049.628.155.86.223.512.686.792 1.381.792s1.15-.28 1.371-.792c.116-.232.164-.532.164-.88V.627h1.015v4.029c0 .454-.078.851-.223 1.179-.367.831-1.179 1.256-2.328 1.256s-1.981-.425-2.337-1.275zM109.42 6.995l-2.859-3.768c-.319-.405-.561-.753-.782-1.054h-.019c.019.28.029.608.029 1.025v3.796h-1.015V.628h.995l2.753 3.623c.329.425.579.773.782 1.082h.019c-.01-.338-.019-.696-.019-1.091V.628h1.014v6.366h-.898v.001zM112.33.628h1.826c2.261 0 3.448 1.285 3.448 3.14s-1.285 3.227-3.526 3.227h-1.748V.628zm1.758 5.507c1.787 0 2.435-1.082 2.435-2.357 0-1.372-.802-2.29-2.454-2.29h-.724v4.647h.743zM121.083.6h.782l2.521 6.395h-1.091l-.628-1.633h-2.357l-.608 1.633h-1.062L121.084.6h-.001zm1.275 3.931-.522-1.449a94.46 94.46 0 0 1-.338-1.025h-.019c-.057.223-.155.512-.348 1.024l-.521 1.449h1.748zM126.92 1.488h-1.846v-.86h4.878l-.29.86h-1.729v5.507h-1.014V1.488zM131.19.628h1.014v6.366h-1.014V.628zM133.925 3.835c0-1.932 1.324-3.264 3.178-3.264s3.168 1.353 3.168 3.264c0 1.911-1.353 3.256-3.168 3.256s-3.178-1.295-3.178-3.256zm5.275 0c0-1.439-.792-2.405-2.096-2.405s-2.096.917-2.096 2.405c0 1.488.841 2.396 2.096 2.396s2.096-.908 2.096-2.396zM146.649 6.995l-2.859-3.768c-.319-.405-.561-.753-.782-1.054h-.019c.019.28.029.608.029 1.025v3.796h-1.015V.628h.995l2.753 3.623c.329.425.579.773.782 1.082h.019c-.01-.338-.019-.696-.019-1.091V.628h1.014v6.366h-.898v.001zM42.217 29.03c.751.507 1.855.994 3.181.994 1.458 0 2.783-.574 2.783-2.143 0-3.291-6.361-2.893-6.361-7.268 0-2.099 1.612-3.821 4.417-3.821 1.37 0 2.584.354 3.291.707v1.79a6.924 6.924 0 0 0-3.224-.818c-1.214 0-2.43.509-2.43 1.944 0 3.092 6.383 2.761 6.383 7.31 0 2.474-2.01 3.976-4.837 3.976-1.679 0-3.07-.509-4.02-1.149l.818-1.523v-.001zM53.809 16.926h7.355l-.596 1.679h-4.793v4.616h4.749v1.678h-4.749v4.903h5.478v1.679h-7.444V16.925zM64.64 16.926h3.291c1.48 0 2.474.265 3.224.707 1.303.729 1.856 1.988 1.856 3.313 0 2.01-1.105 3.269-2.915 3.821v.045c.442.243.994 1.038 1.767 2.341l2.584 4.329H72.15l-2.385-4.042c-.685-1.214-1.237-1.877-1.657-1.988h-1.501v6.03h-1.966V16.926zm3.269 6.913c.773 0 1.348-.155 1.877-.464.729-.398 1.192-1.171 1.192-2.231 0-.84-.309-1.546-.927-2.01-.442-.332-1.105-.596-2.121-.596h-1.325v5.301h1.303zM77.366 16.926h1.966v6.272h7.642v-6.272h1.943v14.556h-1.943v-6.604h-7.642v6.604h-1.966V16.926zM93.688 16.926h1.966v14.556h-1.966V16.926zM119.474 16.926h2.982c1.414 0 2.408.221 3.202.663 1.37.751 2.186 2.121 2.186 3.998 0 1.679-.729 3.291-2.562 4.108-.751.331-1.701.53-3.004.53h-.84v5.256h-1.966V16.925h.001zm2.938 7.686c.883 0 1.525-.155 1.988-.397.95-.487 1.392-1.392 1.392-2.628 0-1.149-.442-2.076-1.303-2.584-.487-.287-1.127-.464-2.054-.464h-.994v6.074h.972l-.001-.001zM131.014 16.926h3.291c1.48 0 2.474.265 3.224.707 1.303.729 1.856 1.988 1.856 3.313 0 2.01-1.104 3.269-2.915 3.821v.045c.442.243.994 1.038 1.767 2.341l2.584 4.329h-2.297l-2.386-4.042c-.684-1.214-1.236-1.877-1.656-1.988h-1.503v6.03h-1.966V16.926h.001zm3.269 6.913c.774 0 1.347-.155 1.877-.464.729-.398 1.192-1.171 1.192-2.231 0-.84-.309-1.546-.928-2.01-.442-.332-1.104-.596-2.121-.596h-1.325v5.301h1.304zM146.354 25.672l-4.86-8.747h2.165l3.666 6.913h.045l3.6-6.913h2.143l-4.815 8.791v5.765h-1.944v-5.809zM103.634 25.672l-4.86-8.747h2.165l3.666 6.913h.045l3.6-6.913h2.143l-4.815 8.791v5.765h-1.944v-5.809zM159.377 18.604h-4.196v-1.679h10.779l-.596 1.679h-4.02v12.877h-1.966V18.604zM168.954 28.698c-.265-.707-.398-1.546-.398-2.495v-9.276h1.966v9.122c0 .751.089 1.436.332 1.988.507 1.281 1.612 1.988 3.313 1.988s2.828-.707 3.335-1.988c.22-.552.309-1.237.309-2.054v-9.056h1.966v9.276c0 .972-.133 1.834-.442 2.541-.774 1.943-2.562 2.96-5.169 2.96s-4.44-1.038-5.212-3.004l-.001-.001zM184.049 16.926h1.966v12.877h5.323v1.679h-7.289V16.926zM198.989 16.881h1.458l5.654 14.6h-2.121l-1.414-3.821h-5.654l-1.392 3.821h-2.076l5.545-14.6zm2.96 9.167-1.369-3.799c-.42-1.237-.641-1.899-.818-2.43h-.044c-.155.529-.398 1.214-.84 2.452l-1.37 3.777h4.44zM14.288.038v26.907h4.98V5.016h7.651v9.298h4.979V.038h-17.61z"/><path d="M26.919 26.945v4.979h4.979V19.293h-4.979v7.652zM26.919 14.314h-7.651v4.979h12.63v-4.979h-4.979zM4.991 26.945v-7.652h9.297v-4.979H.012v17.61h26.907v-4.979H4.991z"/></symbol><symbol id="icon-7" viewBox="0 0 345 32"><path d="M275.851-.066h10.888c3.154.246 6.207.976 9.162 2.191 4.209 2.02 6.002 5.362 5.378 10.025-.493 2.528-1.887 4.364-4.183 5.51a18.973 18.973 0 0 1-4.116 1.461c-4.856.918-9.702 1.87-14.539 2.855a9.289 9.289 0 0 0-1.66.73l23.502.133c.131 2.933.177 5.877.133 8.83h-41.295c-.668-4.66.705-8.577 4.116-11.751a28.207 28.207 0 0 1 9.826-4.78 187.207 187.207 0 0 0 12.614-3.187c.886-.797.886-1.593 0-2.39a8.76 8.76 0 0 0-2.921-.664 18.232 18.232 0 0 0-5.71.398c-1.928.557-2.903 1.84-2.921 3.851a714.23 714.23 0 0 1-13.809.066c-.218-4.946 1.819-8.598 6.108-10.954a29.477 29.477 0 0 1 9.427-2.324zM345.162 17.328h-6.108V.863c-6.948-.022-13.898 0-20.846.066l-16.531 16.266c-.066 3.054-.089 6.108-.066 9.162h23.236v5.311h14.207v-5.311h6.108v-9.029zm-20.448-8.365c.133 2.765.177 5.554.133 8.365-2.834.022-5.666 0-8.498-.066a246.937 246.937 0 0 0 8.365-8.299zM-.066 4.846h17.394c-.022 4.161 0 8.321.066 12.481.469 2.549 1.996 3.943 4.581 4.183a16.95 16.95 0 0 0 5.577-.398c1.936-1.016 2.866-2.631 2.788-4.846a121.432 121.432 0 0 1 0-11.353c5.842-.066 11.684-.089 17.527-.066.022 4.515 0 9.029-.066 13.544-.067 5.19-2.391 8.93-6.971 11.22a37.804 37.804 0 0 1-10.49 2.324H17.328a37.785 37.785 0 0 1-10.49-2.324C2.834 27.692.533 24.527-.067 20.117V4.847zM49.859 4.846c6.462-.022 12.924 0 19.386.066l13.212 13.477c.066-4.514.089-9.029.066-13.544h17.261v26.822c-6.462.022-12.924 0-19.386-.066L67.186 18.124c-.066 4.514-.089 9.029-.066 13.544H49.859V4.846zM101.776 4.846c5.798-.022 11.596 0 17.394.066.088 4.439.132 8.887.133 13.344s-.044 8.906-.133 13.344c-5.798.066-11.596.089-17.394.066V4.844zM120.896 4.846h46.473v10.091h-14.473v16.73h-17.527v-16.73h-14.473V4.846zM168.963 4.846c13.189-.022 26.379 0 39.568.066a59.834 59.834 0 0 1 0 7.967c-7.612.066-15.226.089-22.838.066v1.992c5.4-.022 10.799 0 16.199.066.131 2.136.175 4.283.133 6.44h-16.332v1.992c7.568-.022 15.137 0 22.705.066l.199.199c.11 2.643.088 5.277-.066 7.9-13.189.066-26.379.089-39.568.066V4.844z"/><path d="M210.656 4.846v26.822c11.596.022 23.193 0 34.788-.066a25.26 25.26 0 0 0 6.905-1.461c3.553-1.295 5.877-3.752 6.971-7.369 2.045-11.192-2.625-17.145-14.008-17.859a4498.312 4498.312 0 0 0-34.656-.066zm16.995 9.162c3.851-.022 7.701 0 11.552.066 2.37.4 3.565 1.794 3.585 4.183.049 2.093-.924 3.443-2.921 4.05-4.066.194-8.138.26-12.216.199v-8.498z"/></symbol><symbol id="icon-8" viewBox="0 0 93 32"><path d="M19.146 2.053zm-.875.067zm1.212.101zm.101.101zm-1.817.101zm1.918 0zm-2.423.403zm-.101.101zm2.826 0zm-3.129.404zm3.432.404zm-3.836.606zm3.836.101zm-.101.605zm7.773.303zM6.864 14.334c.467.218.591.507.606 1.009l1.413-.658.909-.089 9.287-3.827 6.864-2.075 3.23-.923c-.097-.6-.127-2.188-.919-2.347-.5-.101-1.225.191-1.705.328a86.95 86.95 0 0 0-3.432 1.043c-4.19 1.392-8.44 2.884-12.315 5.028-1.217.673-3.195 1.261-3.937 2.51z"/><path d="M28.265 5.35zm-.909.101v.101h.303l-.303-.101zm-7.369.101zm7.067 0zm-.707.202zm2.355.067zm-3.062.135zm-9.186.101zm8.884 0zm3.432 0zm-12.215.202zm.101.101zm7.672 0zm-.303.101zm-7.167.302zm2.221 0zm3.937 0zm6.09.068zm-10.229.033zm3.836 0zm-3.937.101zm3.634 0zm-.303.101zm-4.845.101zm4.542 0zm-3.331.101zm3.029 0zm7.571 0zm-7.874.101zm-.303.101zm-.303.101zm8.48 0zm-8.783.101zm-.303.101zm8.884.101zm-.505.101zm-9.186.101zm8.782 0zm-9.085.101zm8.681 0zm-9.186.202zm8.48 0zm-.404.1zm4.038.101zM19.886 12.214v.202c.958.534 1.753 1.448 2.524 2.221.283.284.662.883 1.114.854.677-.043 1.515-.681 2.116-.98 1.424-.71 2.887-1.361 4.341-2.008.594-.264 1.751-.512 2.156-1.038.447-.58-.566-2.379-1.064-2.722-.614-.423-2.159.411-2.808.601-2.84.832-5.58 1.923-8.379 2.869zM25.741 8.681zm4.442 0zm-12.82.101zm12.517 0zm-4.845.101zm-8.177.101zm7.773 0zm6.662 0zm-6.965.101zm4.543 0zm-4.947.101zm4.644 0zm-12.417.101zm12.114 0zm3.23 0zm-8.277.101zm-7.571.101zm7.167 0zm-.303.101zm-.303.101zm4.745 0zm-.303.101zm-11.912.101zm11.609 0zm-11.811.101zm6.663 0zm4.845 0zm-5.148.101zm4.845 0zm6.158 0zm-11.306.101zm4.846 0zm-11.609.101zm-.202.1zm18.372 0zm-12.618.202zm-.303.101zm13.022 0zm-13.325.101zm-6.461.202zm10.701 0zm-10.902.101zm5.854 0zm4.745 0zm-10.801.101zm-.202.101zm5.754 0zm-.303.101zm4.744 0zm-.302.101zm-4.947.101zm4.644 0zm-10.398.101zm5.451 0zm15.243 0zm-20.896.101zm10.095 0zm-10.297.101zm5.351 0zm-5.552.101zm9.993 0zm-10.195.101zm5.249 0zm15.344 0zm-15.647.1zm-.505.202zm5.451 0zm9.994 0zm-.202.101zm-15.747.101zm6.258 0zm-11.306.101zm4.745 0zm-4.947.101zm4.745 0zm7.066 0zm.101.101zm8.177 0zm6.359 0zM23.823 15.95c.229.499.947 1.826 1.451 2.059.488.225 1.349.061 1.88.061 2.146 0 3.813-.48 5.855-1.108.821-.252 2.428-.333 3.069-.905.59-.526.213-2.828-.556-3.057-.855-.255-2.554.48-3.422.671a71.586 71.586 0 0 0-3.23.78c-1.688.457-3.347 1.105-5.047 1.499zM13.022 13.022zm7.773 0zm7.874 0zm-15.849.101zm21.502 0zm-26.246.101zm25.741 0zm2.019 0zm-23.521.101zm21.098 0zm-21.299.101zm4.34 0zm4.745 0zm6.561 0zm5.149 0zm-25.338.101zm8.58 0zM8.984 20.795v.101c-1.521.438-3.069 1.441-4.442 2.221-.541.307-1.266.553-1.684 1.031-.564.645.128 2.36.886 2.625.434.152.927-.222 1.303-.394 1.012-.465 2.032-.923 3.028-1.419 1.089-.543 2.212-1.019 3.331-1.497.487-.208 1.168-.376 1.559-.746.565-.535.728-1.72 1.01-2.426.593-1.485 1.222-2.955 1.812-4.442.293-.739.726-1.521.767-2.322-1.371.236-2.799 1.173-4.038 1.792-2.506 1.253-5.009 2.5-7.47 3.838-.425.231-1.041.468-1.338.864-.369.493-.067 2.096.552 2.324.412.152 1.018-.23 1.392-.379 1.075-.427 2.204-.91 3.331-1.171z"/><path d="M27.558 13.527zm4.947 0zm-20.896.101zm4.341 0zm16.05 0zm-20.593.101zm20.189 0zm-24.328.101zm3.937 0zm10.398 0zm9.488 0zm-9.388.101zm8.985 0zm-23.723.101zm8.076 0zm6.763 0zm8.48 0zm5.855 0zm-21.3.101zm11.407 0zm3.634 0zm-15.243.1zm1.716 0zm9.691 0zm3.432 0zm-22.41.101zm7.369 0zm11.407 0zm3.231 0zm-14.84.101zm11.407 0zm2.726.101zm7.874 0zm-28.871.101zm2.221 0zm-1.01.101zm19.079 0zm-.403.101zm-.303.101zm-19.18.303zm8.177 0zm9.993 0zm-.303.101zm10.6.101v.303h.101l-.101-.303zm-20.391.101zm7.47 0zm1.615 0zm-.303.101zm-8.883.101zm8.58 0zm-13.022.101zm12.719 0zm-12.921.101zm-.202.1zm-.202.101zm13.123 0zm11.912 0zm-25.237.101zm5.048 0zm8.378 0zm11.407 0zm-25.034.101zm-.202.101zm24.53 0zm-24.732.101zm24.328 0zm-24.53.101zm24.126 0zm-24.328.101zm24.025 0zm-24.227.101zm23.823 0zm-24.025.101zm6.158 0zm9.287 0zm8.278 0zm-23.925.101zm-.202.101zm23.42 0zm-23.622.101zm23.319 0zm-7.066.101zm-5.249.101zM19.382 17.565l-3.634 7.268-.202-.202h-.101l-.707.303c-.249-.364-.598-.382-1.009-.303l-.808-.909c-.623.183-1.911.727-2.088 1.415-.172.667.222 2.494 1.179 2.309.827-.16 1.765-.897 2.524-1.276 1.67-.835 3.375-1.595 5.047-2.423.657-.325 2.113-.666 2.517-1.301.232-.365-.092-1.087-.212-1.45-.419-1.266-1.136-2.966-2.507-3.432zM24.934 17.666zm-5.653.101zm-4.442.1zm10.196 0zm4.34.101zm.202 0zm-22.612.101zm-.202.101zm7.975 0zm4.341 0zm-12.518.101zm-.201.101zm12.618.101zm20.795.303v.101h.404l-.404-.101zm50.069 0v.101h.303l-.303-.101zm-84.391.101zm8.984 0zM29.577 18.877v.101h2.322l-2.322-.101zm2.726.303h.101l1.817-.202c-.481-.202-1.612-.27-1.918.202zM42.7 18.877l-.808 3.432c1.034-.012 1.096-1.26 1.211-2.12h.101l.505 2.12h1.11l.808-3.432-.808.101-.505 2.12h-.101l-.404-2.12-1.11-.101zM49.565 21.502l-.202.707c.262.089.528.166.808.181.204.011.41-.015.606-.074 1.877-.563-.805-2.998 1.211-2.63l.202-.606c-.792-.334-2.289-.205-2.084 1.009.067.397.668.9.536 1.289-.147.433-.778.192-1.077.124zM53.502 18.978v.101l1.211-.101h-1.211zm2.523-.101v.101h1.009l-1.009-.101zM63.596 18.877l-.909 3.432h.909l.303-1.312c.717 0 1.089.047 1.312-.707h-1.11c.252-.795.783-.707 1.514-.707l.101-.707h-2.12zM72.782 18.877l-.808 3.432c1.034-.012 1.096-1.26 1.211-2.12h.101l.505 2.12h1.11l.808-3.432-.808.101-.505 2.12h-.101l-.404-2.12-1.11-.101zM79.041 18.877v.101l.808.101-.808-.202zm1.312 0v.101h2.221l-2.221-.101z"/><path d="m82.574 18.877-2.221.101-.808 3.331h2.322l.101-.707h-1.413l1.514-1.312h-1.11l.101-.707h1.514v-.707zM83.18 18.877l-.808 3.432h.808l.404-1.817h.101c.044 1.029.056 1.816 1.211 1.817-.077-.374-.317-.912-.213-1.291.142-.517 1.359-1.177.657-1.864-.425-.416-1.593-.142-2.16-.277zM88.328 18.877l-2.221.101-.808 3.331h2.322l.101-.707h-1.413c.391-.841 1.357-.335 1.514-1.312h-1.11l.101-.707h1.514v-.707zM88.126 21.502l-.101.707c.262.089.528.167.808.176a2.03 2.03 0 0 0 .605-.081c1.893-.529-.883-3 1.212-2.619l.101-.707c-.678-.086-1.7-.251-1.967.61-.192.619 1.102 2.149-.15 2.016-.169-.018-.341-.068-.507-.102zM24.732 22.309h.707l.505-2.423h.101v2.423c1.067-.013 1.553-1.405 1.817-2.322h.101l-.505 2.322h.707l.808-3.331c-1.316 0-1.885.803-2.12 2.12h-.101v-2.12c-.318 0-.871-.104-1.138.104-.551.429-.825 2.545-.881 3.227zM28.77 22.309c.87 0 2.19.35 2.423-.707H29.78l.101-.606h1.211l.202-.707h-1.211c.377-1.067 1.455-.309 1.817-1.312l-2.177.061-.384.848-.568 2.423zm2.826 0c.664 0 1.504.135 2.12-.159.819-.391 1.738-2.117.958-2.927-.273-.284-.699-.245-1.059-.246-.32 0-.868-.101-1.14.104-.579.436-.822 2.529-.879 3.227z"/><path d="M34.827 22.309c.87 0 2.19.35 2.423-.707h-1.413l.101-.606c.742 0 1.178.086 1.413-.707H36.14c.424-1.029 1.495-.318 1.817-1.312-.54 0-1.811-.237-2.248.104-.565.439-.787 2.531-.881 3.227zM55.218 22.309c1.114-.013.956-1.291 1.312-2.12l.505 2.12h1.11l.808-3.331c-1.028.012-1.171 1.24-1.211 2.12h-.202l-.404-2.12c-.296 0-.788-.09-1.037.104-.565.439-.787 2.531-.881 3.227zM66.12 18.978l-.808 3.331c1.036-.004 1.136-.794 1.211-1.716h.202l.202 1.716h.909l-.303-1.514c.585-.175 1.545-1.208.692-1.713-.507-.3-1.529-.104-2.105-.104zM68.24 18.978zm1.514 0zm1.716 0zm1.211 0zM83.079 19.079zm5.956 0zm-60.164.101zm9.791 0zm3.332 0zM86.006 19.18zm-58.448.101zm1.313 0zm12.214 0zm.909 0zM45.527 19.281zm.505 0zm4.138 0zm1.918 0zM58.044 19.281zm.808 0zm.504 0zm4.038 0zM86.006 19.281zm2.322 0zm.505 0zm1.817 0zM65.615 19.382zm3.533 0zm2.726 0zm.706 0zM82.978 19.382zm2.524 0v.404h.101l-.101-.404zm5.148 0zm-76.417.101zM29.375 19.483zm5.452 0zm.605 0zm2.322 0zM50.069 19.483zm5.754 0zm3.433 0zm1.917 0zm11.407 0zm2.961.067zm3.197-.067z"/><path d="M82.978 19.483zm-54.208.101zm1.514 0v.101h1.413l-1.413-.101zm2.725 0v.101h.707l-.707-.101zm3.332 0v.101h1.413l-1.413-.101zm3.129 0zM75.912 19.584v.101h.808l-.808-.101zm1.716 0v.101h.808l-.808-.101zm2.523 0zm.909 0v.101h1.413l-1.413-.101zM3.836 19.785zm10.297 0zm7.268 0zm3.836 0zm4.037 0zM66.759 19.853zm2.086-.068zm1.01 0zm1.11 0zM53.703 19.886zm2.019 0zm12.72 0zm1.312 0zm2.726 0zm2.927 0zm3.23 0zM14.032 19.987zm4.239 0zm7.672 0zm1.918 0zM53.603 20.088zm3.735 0zm.504 0zm.808 0zm4.542 0zM88.631 20.088zm-74.7.101zm4.239 0zm6.966 0zM27.861 20.189zm1.313 0zm1.009 0v.101h1.11l-1.11-.101zM57.338 20.189zm.504 0zm1.414 0zm3.936 0zM67.331 20.29zm.909 0zm3.768.068zm3.298-.068zm3.23 0zM85.199 20.391zm.504 0zm-71.873.101zm12.012 0zm1.111 0zm1.615 0zm3.331 0zM54.814 20.593v.303h.101l-.101-.303zm.706 0zm.808 0zM63.091 20.593zm3.5.034zm1.346-.034zm4.341 0zM27.76 20.694zm1.313 0zm2.018 0zm1.649.067zm2.389-.067zm7.067 0zm2.927 0zm1.11 0zm1.01 0zm3.129 0zm1.01 0zm1.009 0zm3.129 0zm1.111 0zm2.927 0zm1.01 0zM67.735 20.694zm1.615 0v.505h.101l-.101-.505zm5.855 0zm3.23 0zM25.741 20.896zm2.726 0zm3.331 0zm5.35 0zM89.136 20.896zm-81.06.101zm5.552 0zm11.306 0zM42.095 20.997zm.807 0zm1.313 0zm2.22 0zm4.139 0zM62.991 20.997zm3.432 0zm4.441 0zm1.313 0zM35.028 21.098zm7.067 0zm1.346.067zm1.581-.067zm1.514 0zm4.139 0zM45.022 21.199zm1.548.067zm.875-.067v.303h.101l-.101-.303zm3.264.067zm6.023-.067zM59.895 21.266zm.875-.067v.303h.101l-.101-.303zm4.744 0zM3.634 21.3zm4.24 0zm9.691 0zm7.268 0zm.807 0zm2.726 0zM42.801 21.3zm8.783 0zm.403 0zm.909 0v.101h1.009l-1.009-.101zM73.489 21.3zm2.726 0zm.908 0zm6.259 0zM34.927 21.401zm.909 0zm1.817 0zm4.341 0zm.807 0zm2.625 0zm4.139 0zM51.584 21.401zm3.735 0zm.807 0zm2.625 0zM82.473 21.401zm5.653 0zm-81.464.101zm10.802 0zM40.042 21.535zm1.952-.033zm1.514 0zm1.413 0zm.438.067zm.168-.067zM45.931 21.603v.101h.303l-.303-.101zm3.533 0zm.605 0v.101h.404l-.404-.101zm1.716 0zm.909 0zM58.246 21.603zm.404 0zm.606 0v.101h.404l-.404-.101zM77.022 21.603zm2.625 0zm2.321 0zm1.313 0zm.504 0zm.909 0zm.74.067zm2.288-.067zm1.01 0v.101h.303l-.303-.101zm1.413 0zM17.363 21.703zm7.369 0zm.807 0zm2.726 0zm3.331 0zM83.281 21.703zm.504 0zm3.937 0zm-81.867.101zM26.953 21.804zm.504 0zm1.313 0zm2.321 0zm.505 0zM52.593 21.804zm1.413 0v.505h.101l-.101-.505zm.942.068zM62.789 21.804zm3.432 0zm.639.068zm.875-.068zm4.24 0zM78.132 21.804zm.909 0zm3.331 0zm5.653 0zM17.262 21.905zm4.879.068zm8.95-.068zm2.928 0zM45.224 21.905zm2.019 0zm2.12 0zm2.019 0zM58.549 21.905zm2.019 0zm5.653 0zm2.423 0zM45.224 22.006zm1.918 0zm2.221 0zm1.918 0zM58.145 22.006zm.404 0zm1.918 0zm3.163.068zM83.18 22.006zm1.615 0zm.505 0zm2.321 0zM89.943 22.006zm-86.006.101zm9.287 0zm11.407 0zm2.725 0zm.808 0zm.505 0zm2.826 0zm2.221 0zM83.18 22.107zm4.441 0zm-82.776.101zm1.313 0zM24.631 22.208zm2.12 0zm.605 0zm1.313 0zm2.322 0zm.504 0zm1.918 0zm1.313 0zm2.321 0zM45.224 22.208zm1.615 0zm2.524 0zm1.615 0zm.404 0zm3.735 0zM58.549 22.208zm1.615 0zm5.956 0zm1.716 0zm1.211 0zm1.514 0zm1.313 0zM78.032 22.208zm4.239 0zm1.615 0zm4.139 0zM89.64 22.208zm-83.684.101zm7.167 0zm11.508 0v.101h.808l-.808-.101zm1.413 0v.101h.707l-.707-.101zm1.312 0v.101h.808l-.808-.101zm1.313 0v.101h2.322l-2.322-.101zm2.826 0v.101h1.615l-1.615-.101zm3.231 0v.101h2.322l-2.322-.101zm3.836 0zM39.571 22.309zm.808 0v.101h.909l-.909-.101zm1.413 0v.101h.808l-.808-.101zm1.918 0v.101h1.11l-1.11-.101zm1.884.034zM50.776 22.309zm.606 0v.101h1.009l-1.009-.101zm2.725 0v.101h.909l-.909-.101zm1.01 0v.101h.808l-.808-.101zm1.918 0v.101h1.11l-1.11-.101zm1.918 0zM59.962 22.309zm2.726 0v.101h.909l-.909-.101zm2.624 0v.101h.808l-.808-.101zm1.615 0v.101h1.009l-1.009-.101zm2.322 0zM70.259 22.309zm1.615 0v.101h.808l-.808-.101zm1.918 0v.101h1.009l-1.009-.101zm2.221 0v.101h.909l-.909-.101zm2.019 0v.101h.909l-.909-.101zm1.514 0v.101h2.322l-2.322-.101zm2.725 0v.101h.909l-.909-.101zm1.716 0v.101h.909l-.909-.101zm1.313 0v.101h2.322l-2.322-.101zm3.129 0zM89.338 22.309zM4.24 22.41zm1.514 0zm16.252.101zm-.202.101zm-8.883.101zm8.682 0zm-8.884.101zm8.682 0zm-4.745.202zm-12.214.101zm7.571 0zm-7.773.101zM24.227 23.319v.101h66.019l-1.817-.101H24.227zm-12.921.101zm5.148 0zm3.634 0zm-.202.1zm-.201.101zm-16.354.101zm7.268 0zm-7.47.101zm7.268 0zM23.823 24.833c.296.306.529.236.909.101-.251.409-.557.402-1.009.404v.404l.808-.101-.101.606h-.808v.404h5.148l.101-.404h-.707l.101-.606h.909v-.303h-.808l.101-.606c.373-.012.583-.032.707-.404H25.54l.303-.404-2.019.909zM65.211 24.025c-.162.74-.507.807-1.211.808l.404-.505c-.901-.158-1.352.805-2.019 1.312.382.648.941-.182 1.413-.344.339-.117.756-.059 1.11-.059-.214.978-.983.862-1.817.707l-.101.404h1.615c-.179 1.292-1.613.909-2.625.909v.404c1.334-.169 2.693-.103 4.038-.101.474.001 1.131.239 1.312-.303h-2.221c.158-1.143 1.092-.909 2.019-.909v-.404l-1.716.101.101-.808c.627 0 1.946.28 2.221-.404h-2.019l.202-.808h-.707zM2.726 24.126zm6.965 0zm3.432 0zm5.451 0zM33.884 24.16zm5.048 0zm4.879-.034v.101h.808l-.808-.101zm.908 0zm.202 0zm.202 0zm.202 0zm1.716 0zm.202 0zm.202 0zm.202 0v.101h.606l-.606-.101zM55.621 24.126l-2.423.101-.303 1.514 2.524-.101-.101-.303-.404-.303h.606v-.101h-.707v-.101l.707-.202v-.101l-1.11.101v-.202c.288 0 1.386.161 1.211-.303zm.606 0-.505.505-.101.505.606.404h-.707l.101.303 2.524-.303h-.909v-.101l.707-.505h-1.918v-.101l1.11-.404v.303c.473 0 1.011.115 1.312-.303l-.404-.101-.404.303v-.404l-1.413-.101z"/><path d="M2.625 24.227zm6.864 0zm8.883 0zm7.167 0zm3.534 0 .202.202v-.202h-.202zM33.817 24.227l-.808 3.533h5.148l.909-3.533h-5.249zm9.994 0-.303 1.615h1.009v.101l-1.817.505.202.404 1.514-.505c-.25.73-.915.948-1.615 1.11.82.827 2.051-.431 2.322-1.211l-.404.101c.558-.573 1.174-.602 1.716 0l-.303-.101-.303 1.514c.779-.026.774-.66.909-1.312.59.227 1.14.565 1.615 0l-1.514-.505v-.101h1.11l.404-1.615H43.81zM58.347 24.328zm5.249 0zm-54.612.101zm2.423 0zm22.309 0zm19.382 0zM54.41 24.429l.909.202v-.101l-.909-.101zm1.615 0zm.505 0zM55.823 24.53zm1.817 0v.101h.303l-.303-.101zm.707 0zm5.148 0zM65.009 24.53zm.707 0zm-57.136.101zm6.057 0z"/><path d="M33.716 27.256h3.937l.101-.505c-.984.618-2.572.192-3.735.202v-.404h2.221l.101-1.312-1.918.101.101-.505c.535.127 1.58.319 1.918-.202l-1.962.104-.764 2.521z"/><path d="m37.855 24.631-.101.202v.101l.303-.101c-.212.576-.672.505-1.211.505v.606l.909-.404-.808 1.009.303.101.101-.303.505.202.404-1.918h-.404zM44.416 24.631v.202h1.211v-.202h-1.211zm1.817.101v.101h1.312v-.202l-1.312.101zM48.185 24.698zm5.619-.067zm1.616 0zm.201 0zm.707 0zM25.338 24.732l-.101.505h.505l.101-.505h-.505zm1.009 0-.101.505h.505l.101-.505h-.505zM28.467 24.833zm5.148 0zm.976.033zm1.75-.033zm1.009 0zM44.315 24.833v.101h1.312l-1.312-.101zm1.918 0v.101h1.312l-1.312-.101zM54.107 24.833v.101h.303l-.303-.101zm.808 0v.101h.505l-.505-.101zM56.126 24.833zm1.279.033zm10.33-.033zm-50.877.101zM33.615 24.934zm.606 0zm3.735 0zm.235.067zM54.141 25.102zm.807 0zm.472-.067zm12.248.067zM27.256 25.136l.606.202v-.101l-.606-.101zm1.11 0 .909.202v-.101l-.909-.101zm6.057 0zM44.315 25.136zm1.111 0zm.707 0zm1.211 0zm.706 0zm8.379 0zM25.338 25.237v.101h.404l-.404-.101zm.908 0v.101h.404l-.404-.101z"/><path d="M26.65 25.237zm6.864 0zm.909 0v.101h1.817l-1.817-.101zm2.422 0v.101h1.009l-1.009-.101zM44.215 25.237v.303c.473 0 1.011.115 1.312-.303h-1.312zm1.918 0v.303c.473 0 1.011.115 1.312-.303h-1.312zM2.726 25.338zm4.34 0zm3.634 0zm5.35 0zm13.124 0zM54.208 25.338l.707.202v-.101l-.707-.101zm1.918 0zm1.212 0 .303.202v-.101l-.303-.101zm5.35 0zm2.12 0zm.706 0zm-58.65.101zm8.985 0zm18.271 0zM56.093 25.472zm1.211 0zm5.283-.033zm2.221 0zM23.621 25.64zm.202 0v.101h.707l-.707-.101zm1.313 0v.101l.505.101-.505-.202zm1.009 0v.101h.505l-.505-.101zm1.01 0v.101l.606.101-.606-.202zm1.11 0v.101h.909l-.909-.101zM52.795 25.64zm2.524 0zm.201 0zm.909 0zM56.833 25.64zm5.485.068zm.773-.068zm2.322 0z"/><path d="M25.035 26.246c.344-.059.431-.166.505-.505-.344.059-.431.166-.505.505zm1.11-.505-.101.505h.505l.101-.505h-.505zm1.01 0-.101.505c.387-.031.522-.122.606-.505h-.505zM64.707 25.741zm.706 0zm-62.486.101zm12.114 0zM34.927 25.842zm2.019 0zm.505 0zm1.111 0zM26.549 25.943zm.505 0zm1.11 0zm6.259 0zM52.593 26.246l1.918-.101v.202h-1.514l-.303 1.413h4.442l.303-1.413h-1.514v-.101l2.12-.303h-4.139c-.413 0-1.207-.187-1.312.303zM63.293 25.943v.101h1.413l-1.413-.101zm2.12 0v.101h1.615l-1.615-.101zm1.716 0zM10.801 26.044zm3.836 0zm10.802 0zm1.615 0zm.504 0zm.606 0zm5.148 0zm2.625 0zM44.921 26.044zm2.221 0zm15.849 0zM67.129 26.044zm-52.694.101zm9.893 0zm.606 0zM25.439 26.145zm2.119 0zm5.754 0zm.606 0zm3.23 0zM43.811 26.145zm.908 0v.202h.202l-.202-.202z"/><path d="M52.492 26.145zm.202 0v.101h1.817l-1.817-.101zm2.322 0v.101h.404l-.404-.101zm1.009 0v.101h1.817l-1.817-.101zm1.918 0zM5.148 26.246zm9.085 0zm19.685 0zM34.322 26.246zm2.725 0zm.808 0zm.606 0zM43.508 26.246zm2.793.034zm1.346-.034zM55.924 26.246zm-50.978.101zm9.086 0zM37.35 26.347zm1.111 0zm4.542 0zM43.104 26.347zm1.211 0zm.707 0zm3.028 0zM62.991 26.347v.101h.303l-.303-.101zm.403 0zm3.13 0zm.202 0v.101h.404l-.404-.101zm-63.395.101zm1.413 0zm9.086 0zm9.69 0zm5.25 0zm4.441 0zm1.817 0v.101h.303l-.303-.101zM35.331 26.448v.101h.303l-.303-.101zm.909 0zm1.211 0zm6.663 0zM23.52 26.549zm9.691 0zm.606 0zm.202 0v.404h.101l-.101-.404zm.202 0zM64.505 26.549zm.706 0zm-54.208.101zm2.423 0zm10.094 0v.101h.303l-.303-.101zm.606 0zm3.836 0zm.673.033zm5.182-.033zM38.36 26.65zm4.441 0zm.707 0zM44.921 26.65zm1.716 0zm.707 0zM54.208 26.953v.101c.643 0 2.144.282 2.524-.303l-1.413.202v-.303l-1.11.303zM56.53 26.65zm.808 0zm7.167 0zM24.328 26.751zm1.211 0zm1.111 0zM35.634 26.751zm.808 0zm1.918 0zM25.035 26.852l-.101.909h.606l.101-.909h-.606zm1.211 0 .101.909.606-.101-.101-.808h-.606zM42.902 26.852zm1.212 0zm.706 0zm1.111 0zm6.864 0zM53.434 26.919zm.269-.067zm.606 0zM27.558 26.953zm.707 0zm4.845 0zm.606 0zm2.928 0zM44.719 26.953zm1.212 0zm6.864 0zM64.404 26.953zm.706 0zm-41.388.101zM28.366 27.054zm5.35 0zm1.817 0zm.404 0zm.807 0zM36.845 27.054zm.404 0zm.404 0zm.606 0zm8.277 0zm10.701 0zm7.167 0zm-40.783.101zm.707 0zM46.536 27.155zm10.701 0zm4.744 0zM62.183 27.155v.101h2.12l-2.12-.101zm3.028 0v.101h2.019l-2.019-.101z"/><path d="M23.52 27.256zm.707 0zm1.312 0v.303h.101l-.101-.303zm2.221 0zm.707 0zM33.009 27.256zm10.297 0zm1.11 0zm1.414 0zm6.864 0zM26.246 27.356v.404h.101l-.101-.404zm2.322 0zM42.97 27.39zm1.245-.034zm1.615 0zm6.864 0zM53.502 27.356v.101h3.129l-3.129-.101zm-30.284.101zM28.568 27.457zm9.59 0zm4.542 0zm1.313 0zm13.123 0zM61.88 27.457zm-38.561.101zm2.254.068zm1.38-.068zM28.366 27.558zm5.249 0v.101h3.937c-1.037-.435-2.809-.101-3.937-.101zM61.88 27.558zm.404 0v.101h4.644c-1.205-.506-3.331-.101-4.644-.101zm4.946 0zm-43.71.101zm.202 0zM24.833 27.659zM26.515 27.693zM26.717 27.693zM28.029 27.693zM28.164 27.659zM32.909 27.659zm9.993 0zm.505 0zM43.508 27.659zM45.729 27.659zm6.864 0 .707.101v-.101h-.707zM56.463 27.727zm-23.554.033v.101h.707l-.707-.101zm4.643 0v.101h.606l-.606-.101zM43.003 27.76zM43.104 27.76zm2.692.034zm.538-.034zm6.865 0zM56.53 27.76v.101h.606l-.606-.101z"/></symbol><symbol id="icon-9" viewBox="0 0 95 32"><path d="M59.372 7.985c-.012-.001-.022-.006-.031-.014s-.013-.019-.013-.031.005-.023.013-.031.019-.013.031-.013l27.217-.039.023 16.527A39.704 39.704 0 0 0 59.368 7.991zM25.739 18.28l.009 5.879h1.626v-4.785c.546-.47.938-.315 2.018.577l.653-1.472a3.27 3.27 0 0 0-1.355-.301 1.697 1.697 0 0 0-1.281.564l-.078.095-.015-.017.013-.546-1.591.006zM32.313 15.161l-1.626.002.011 8.992 1.626-.002-.011-8.992zM51.995 18.245l-1.625.002.008 5.879 1.626-.002-.008-5.879zM51.382 15.586a.864.864 0 0 0-.795.532.866.866 0 0 0 .187.939.864.864 0 0 0 .938.185.857.857 0 0 0 .53-.797.854.854 0 0 0-.248-.612.856.856 0 0 0-.612-.248zM60.249 18.234l-1.626.002.008 5.879 1.626-.002-.008-5.879zM59.433 15.574a.864.864 0 0 0-.795.532.866.866 0 0 0 .187.939.864.864 0 0 0 .939.185.857.857 0 0 0 .53-.797.855.855 0 0 0-.53-.797.851.851 0 0 0-.331-.063zM53.261 19.852c-.151 2.237 3.131 1.701 3.039 3.061-.047.546-.516.736-1.016.72-.813-.062-1.314-.53-1.753-1.045l-.482 1.079a4.82 4.82 0 0 0 2.002.602c1.407.09 2.595-.521 2.67-1.881.138-2.107-3.254-1.841-3.194-2.919.032-.47.561-.704 1.109-.674s1.002.358 1.487.795l.437-.969a5.529 5.529 0 0 0-1.705-.437c-1.517-.09-2.532.707-2.593 1.656zM45.936 24.131l.689-.001 3.429-7.901-.893.001-2.384 5.554-2.369-5.548-1.97.003 3.498 7.892zM74.682 24.09v-3.236c0-2.19-1.677-2.735-2.661-2.733-.704 0-1.297.268-1.89.676l-.033-.017v-.567h-1.505l.008 5.881h1.627l-.007-4.737c.485-.424.954-.602 1.355-.602.859 0 1.456.828 1.456 1.734v3.596l1.653.006zM14.453 17.031h-.923l-1.839 4.771-1.978-5.485-1.892.003 2.937 7.845.891-.002 1.884-4.85 1.883 4.845.893-.002 2.913-7.837-.891.001-2.041 5.474-1.836-4.765zM21.732 18.223c-1.972 0-3.188 1.365-3.186 3.01s1.224 3 3.194 3 3.188-1.365 3.186-3.01c-.001-1.645-1.225-3.001-3.194-3zm.007 5.443c-1.018 0-1.472-1.078-1.474-2.437s.452-2.441 1.466-2.443c1.015-.002 1.472 1.078 1.474 2.438s-.45 2.44-1.466 2.441zM64.477 18.163c-1.97 0-3.188 1.365-3.185 3.01s1.224 3 3.194 2.997c1.97-.003 3.188-1.364 3.185-3.01s-1.224-3-3.194-2.997zm.009 5.441c-1.017 0-1.472-1.076-1.473-2.437s.451-2.44 1.466-2.441 1.472 1.076 1.474 2.437c.001 1.361-.45 2.44-1.466 2.441zM38.081 15.151v3.581a3.148 3.148 0 0 0-1.845-.56c-.891 0-3.018.551-3.01 3.132 0 1.922 1.692 2.968 3.01 2.967a3.086 3.086 0 0 0 1.957-.707l.032.017v.561h1.505l-.014-8.992-1.635.001zm.01 7.834c-.421.36-.811.626-1.406.628-.72 0-1.656-.602-1.656-2.375 0-1.907 1.481-3.286 3.063-1.806l-.002 3.554z"/><path d="M82.11 17.489c.179-2.72.119-4.308.583-4.74.431-.4 1.204-.51 2.526-.602-2.896-.331-2.825-.245-3.12-3.06-.287 2.804-.217 2.724-3.113 3.063 1.319.095 2.095.202 2.527.602.467.43.409 2.018.602 4.738z"/></symbol></defs></svg>